# Project-authored high-density cabin panel and trim details.
o cabin_detail_panels
v -0.3700 0.1925 -9.6600
v 0.3700 0.1925 -9.6600
v 0.3700 0.2375 -9.6600
v -0.3700 0.2375 -9.6600
v -0.3700 0.1925 -9.0400
v 0.3700 0.1925 -9.0400
v 0.3700 0.2375 -9.0400
v -0.3700 0.2375 -9.0400
v -0.4100 0.1925 -8.4100
v 0.4100 0.1925 -8.4100
v 0.4100 0.2375 -8.4100
v -0.4100 0.2375 -8.4100
v -0.4100 0.1925 -7.7900
v 0.4100 0.1925 -7.7900
v 0.4100 0.2375 -7.7900
v -0.4100 0.2375 -7.7900
v -0.5100 0.1925 -7.0100
v 0.5100 0.1925 -7.0100
v 0.5100 0.2375 -7.0100
v -0.5100 0.2375 -7.0100
v -0.5100 0.1925 -6.3900
v 0.5100 0.1925 -6.3900
v 0.5100 0.2375 -6.3900
v -0.5100 0.2375 -6.3900
v -0.5700 0.1925 -5.5100
v 0.5700 0.1925 -5.5100
v 0.5700 0.2375 -5.5100
v -0.5700 0.2375 -5.5100
v -0.5700 0.1925 -4.8900
v 0.5700 0.1925 -4.8900
v 0.5700 0.2375 -4.8900
v -0.5700 0.2375 -4.8900
v -0.6750 0.1925 -4.0100
v 0.6750 0.1925 -4.0100
v 0.6750 0.2375 -4.0100
v -0.6750 0.2375 -4.0100
v -0.6750 0.1925 -3.3900
v 0.6750 0.1925 -3.3900
v 0.6750 0.2375 -3.3900
v -0.6750 0.2375 -3.3900
v -0.8100 0.1925 -2.4100
v 0.8100 0.1925 -2.4100
v 0.8100 0.2375 -2.4100
v -0.8100 0.2375 -2.4100
v -0.8100 0.1925 -1.7900
v 0.8100 0.1925 -1.7900
v 0.8100 0.2375 -1.7900
v -0.8100 0.2375 -1.7900
v -0.9300 0.1925 -0.7600
v 0.9300 0.1925 -0.7600
v 0.9300 0.2375 -0.7600
v -0.9300 0.2375 -0.7600
v -0.9300 0.1925 -0.1400
v 0.9300 0.1925 -0.1400
v 0.9300 0.2375 -0.1400
v -0.9300 0.2375 -0.1400
v -0.9600 0.1925 0.8400
v 0.9600 0.1925 0.8400
v 0.9600 0.2375 0.8400
v -0.9600 0.2375 0.8400
v -0.9600 0.1925 1.4600
v 0.9600 0.1925 1.4600
v 0.9600 0.2375 1.4600
v -0.9600 0.2375 1.4600
v -0.8500 0.1925 2.2400
v 0.8500 0.1925 2.2400
v 0.8500 0.2375 2.2400
v -0.8500 0.2375 2.2400
v -0.8500 0.1925 2.8600
v 0.8500 0.1925 2.8600
v 0.8500 0.2375 2.8600
v -0.8500 0.2375 2.8600
v -0.9600 0.2800 -9.2250
v -0.8800 0.2800 -9.2250
v -0.8800 0.4000 -9.2250
v -0.9600 0.4000 -9.2250
v -0.9600 0.2800 -5.2750
v -0.8800 0.2800 -5.2750
v -0.8800 0.4000 -5.2750
v -0.9600 0.4000 -5.2750
v -1.3050 0.3000 -5.0500
v -1.2150 0.3000 -5.0500
v -1.2150 0.4200 -5.0500
v -1.3050 0.4200 -5.0500
v -1.3050 0.3000 -1.8500
v -1.2150 0.3000 -1.8500
v -1.2150 0.4200 -1.8500
v -1.3050 0.4200 -1.8500
v -1.8300 0.3100 -1.6000
v -1.7300 0.3100 -1.6000
v -1.7300 0.4500 -1.6000
v -1.8300 0.4500 -1.6000
v -1.8300 0.3100 3.1000
v -1.7300 0.3100 3.1000
v -1.7300 0.4500 3.1000
v -1.8300 0.4500 3.1000
v -1.0100 0.8700 -9.0500
v -0.9500 0.8700 -9.0500
v -0.9500 0.9700 -9.0500
v -1.0100 0.9700 -9.0500
v -1.0100 0.8700 -5.6500
v -0.9500 0.8700 -5.6500
v -0.9500 0.9700 -5.6500
v -1.0100 0.9700 -5.6500
v -1.3950 0.9300 -5.0000
v -1.3250 0.9300 -5.0000
v -1.3250 1.0300 -5.0000
v -1.3950 1.0300 -5.0000
v -1.3950 0.9300 -2.1000
v -1.3250 0.9300 -2.1000
v -1.3250 1.0300 -2.1000
v -1.3950 1.0300 -2.1000
v -1.9000 0.9600 -1.4250
v -1.8200 0.9600 -1.4250
v -1.8200 1.0800 -1.4250
v -1.9000 1.0800 -1.4250
v -1.9000 0.9600 2.8250
v -1.8200 0.9600 2.8250
v -1.8200 1.0800 2.8250
v -1.9000 1.0800 2.8250
v 0.8800 0.2800 -9.2250
v 0.9600 0.2800 -9.2250
v 0.9600 0.4000 -9.2250
v 0.8800 0.4000 -9.2250
v 0.8800 0.2800 -5.2750
v 0.9600 0.2800 -5.2750
v 0.9600 0.4000 -5.2750
v 0.8800 0.4000 -5.2750
v 1.2150 0.3000 -5.0500
v 1.3050 0.3000 -5.0500
v 1.3050 0.4200 -5.0500
v 1.2150 0.4200 -5.0500
v 1.2150 0.3000 -1.8500
v 1.3050 0.3000 -1.8500
v 1.3050 0.4200 -1.8500
v 1.2150 0.4200 -1.8500
v 1.7300 0.3100 -1.6000
v 1.8300 0.3100 -1.6000
v 1.8300 0.4500 -1.6000
v 1.7300 0.4500 -1.6000
v 1.7300 0.3100 3.1000
v 1.8300 0.3100 3.1000
v 1.8300 0.4500 3.1000
v 1.7300 0.4500 3.1000
v 0.9500 0.8700 -9.0500
v 1.0100 0.8700 -9.0500
v 1.0100 0.9700 -9.0500
v 0.9500 0.9700 -9.0500
v 0.9500 0.8700 -5.6500
v 1.0100 0.8700 -5.6500
v 1.0100 0.9700 -5.6500
v 0.9500 0.9700 -5.6500
v 1.3250 0.9300 -5.0000
v 1.3950 0.9300 -5.0000
v 1.3950 1.0300 -5.0000
v 1.3250 1.0300 -5.0000
v 1.3250 0.9300 -2.1000
v 1.3950 0.9300 -2.1000
v 1.3950 1.0300 -2.1000
v 1.3250 1.0300 -2.1000
v 1.8200 0.9600 -1.4250
v 1.9000 0.9600 -1.4250
v 1.9000 1.0800 -1.4250
v 1.8200 1.0800 -1.4250
v 1.8200 0.9600 2.8250
v 1.9000 0.9600 2.8250
v 1.9000 1.0800 2.8250
v 1.8200 1.0800 2.8250
f 1 2 3 4
f 5 8 7 6
f 1 5 6 2
f 2 6 7 3
f 3 7 8 4
f 4 8 5 1
f 9 10 11 12
f 13 16 15 14
f 9 13 14 10
f 10 14 15 11
f 11 15 16 12
f 12 16 13 9
f 17 18 19 20
f 21 24 23 22
f 17 21 22 18
f 18 22 23 19
f 19 23 24 20
f 20 24 21 17
f 25 26 27 28
f 29 32 31 30
f 25 29 30 26
f 26 30 31 27
f 27 31 32 28
f 28 32 29 25
f 33 34 35 36
f 37 40 39 38
f 33 37 38 34
f 34 38 39 35
f 35 39 40 36
f 36 40 37 33
f 41 42 43 44
f 45 48 47 46
f 41 45 46 42
f 42 46 47 43
f 43 47 48 44
f 44 48 45 41
f 49 50 51 52
f 53 56 55 54
f 49 53 54 50
f 50 54 55 51
f 51 55 56 52
f 52 56 53 49
f 57 58 59 60
f 61 64 63 62
f 57 61 62 58
f 58 62 63 59
f 59 63 64 60
f 60 64 61 57
f 65 66 67 68
f 69 72 71 70
f 65 69 70 66
f 66 70 71 67
f 67 71 72 68
f 68 72 69 65
f 73 74 75 76
f 77 80 79 78
f 73 77 78 74
f 74 78 79 75
f 75 79 80 76
f 76 80 77 73
f 81 82 83 84
f 85 88 87 86
f 81 85 86 82
f 82 86 87 83
f 83 87 88 84
f 84 88 85 81
f 89 90 91 92
f 93 96 95 94
f 89 93 94 90
f 90 94 95 91
f 91 95 96 92
f 92 96 93 89
f 97 98 99 100
f 101 104 103 102
f 97 101 102 98
f 98 102 103 99
f 99 103 104 100
f 100 104 101 97
f 105 106 107 108
f 109 112 111 110
f 105 109 110 106
f 106 110 111 107
f 107 111 112 108
f 108 112 109 105
f 113 114 115 116
f 117 120 119 118
f 113 117 118 114
f 114 118 119 115
f 115 119 120 116
f 116 120 117 113
f 121 122 123 124
f 125 128 127 126
f 121 125 126 122
f 122 126 127 123
f 123 127 128 124
f 124 128 125 121
f 129 130 131 132
f 133 136 135 134
f 129 133 134 130
f 130 134 135 131
f 131 135 136 132
f 132 136 133 129
f 137 138 139 140
f 141 144 143 142
f 137 141 142 138
f 138 142 143 139
f 139 143 144 140
f 140 144 141 137
f 145 146 147 148
f 149 152 151 150
f 145 149 150 146
f 146 150 151 147
f 147 151 152 148
f 148 152 149 145
f 153 154 155 156
f 157 160 159 158
f 153 157 158 154
f 154 158 159 155
f 155 159 160 156
f 156 160 157 153
f 161 162 163 164
f 165 168 167 166
f 161 165 166 162
f 162 166 167 163
f 163 167 168 164
f 164 168 165 161
