# Project-authored curved ShuttleA cabin interior shell.
o cabin_inner_shell
v -1.6128 0.1200 -3.7200
v -1.7568 0.7200 -3.7200
v -1.6128 1.4200 -3.7200
v -1.0656 2.1600 -3.7200
v -0.4464 2.5000 -3.7200
v 0.0000 2.5800 -3.7200
v 0.4464 2.5000 -3.7200
v 1.0656 2.1600 -3.7200
v 1.6128 1.4200 -3.7200
v 1.7568 0.7200 -3.7200
v 1.6128 0.1200 -3.7200
v -1.8816 0.1200 -2.7200
v -2.0496 0.7200 -2.7200
v -1.8816 1.4200 -2.7200
v -1.2432 2.1600 -2.7200
v -0.5208 2.5000 -2.7200
v 0.0000 2.5800 -2.7200
v 0.5208 2.5000 -2.7200
v 1.2432 2.1600 -2.7200
v 1.8816 1.4200 -2.7200
v 2.0496 0.7200 -2.7200
v 1.8816 0.1200 -2.7200
v -2.2400 0.1200 -1.4800
v -2.4400 0.7200 -1.4800
v -2.2400 1.4200 -1.4800
v -1.4800 2.1600 -1.4800
v -0.6200 2.5000 -1.4800
v 0.0000 2.5800 -1.4800
v 0.6200 2.5000 -1.4800
v 1.4800 2.1600 -1.4800
v 2.2400 1.4200 -1.4800
v 2.4400 0.7200 -1.4800
v 2.2400 0.1200 -1.4800
v -2.4192 0.1200 -0.1800
v -2.6352 0.7200 -0.1800
v -2.4192 1.4200 -0.1800
v -1.5984 2.1600 -0.1800
v -0.6696 2.5000 -0.1800
v 0.0000 2.5800 -0.1800
v 0.6696 2.5000 -0.1800
v 1.5984 2.1600 -0.1800
v 2.4192 1.4200 -0.1800
v 2.6352 0.7200 -0.1800
v 2.4192 0.1200 -0.1800
v -2.2400 0.1200 1.1800
v -2.4400 0.7200 1.1800
v -2.2400 1.4200 1.1800
v -1.4800 2.1600 1.1800
v -0.6200 2.5000 1.1800
v 0.0000 2.5800 1.1800
v 0.6200 2.5000 1.1800
v 1.4800 2.1600 1.1800
v 2.2400 1.4200 1.1800
v 2.4400 0.7200 1.1800
v 2.2400 0.1200 1.1800
v -2.0160 0.1152 2.4200
v -2.1960 0.6912 2.4200
v -2.0160 1.3632 2.4200
v -1.3320 2.0736 2.4200
v -0.5580 2.4000 2.4200
v 0.0000 2.4768 2.4200
v 0.5580 2.4000 2.4200
v 1.3320 2.0736 2.4200
v 2.0160 1.3632 2.4200
v 2.1960 0.6912 2.4200
v 2.0160 0.1152 2.4200
v -1.7472 0.1152 3.4200
v -1.9032 0.6912 3.4200
v -1.7472 1.3632 3.4200
v -1.1544 2.0736 3.4200
v -0.4836 2.4000 3.4200
v 0.0000 2.4768 3.4200
v 0.4836 2.4000 3.4200
v 1.1544 2.0736 3.4200
v 1.7472 1.3632 3.4200
v 1.9032 0.6912 3.4200
v 1.7472 0.1152 3.4200
f 1 12 13 2
f 2 13 12 1
f 2 13 14 3
f 3 14 13 2
f 3 14 15 4
f 4 15 14 3
f 4 15 16 5
f 5 16 15 4
f 5 16 17 6
f 6 17 16 5
f 6 17 18 7
f 7 18 17 6
f 7 18 19 8
f 8 19 18 7
f 8 19 20 9
f 9 20 19 8
f 9 20 21 10
f 10 21 20 9
f 10 21 22 11
f 11 22 21 10
f 12 23 24 13
f 13 24 23 12
f 13 24 25 14
f 14 25 24 13
f 14 25 26 15
f 15 26 25 14
f 15 26 27 16
f 16 27 26 15
f 16 27 28 17
f 17 28 27 16
f 17 28 29 18
f 18 29 28 17
f 18 29 30 19
f 19 30 29 18
f 19 30 31 20
f 20 31 30 19
f 20 31 32 21
f 21 32 31 20
f 21 32 33 22
f 22 33 32 21
f 23 34 35 24
f 24 35 34 23
f 24 35 36 25
f 25 36 35 24
f 25 36 37 26
f 26 37 36 25
f 26 37 38 27
f 27 38 37 26
f 27 38 39 28
f 28 39 38 27
f 28 39 40 29
f 29 40 39 28
f 29 40 41 30
f 30 41 40 29
f 30 41 42 31
f 31 42 41 30
f 31 42 43 32
f 32 43 42 31
f 32 43 44 33
f 33 44 43 32
f 34 45 46 35
f 35 46 45 34
f 35 46 47 36
f 36 47 46 35
f 36 47 48 37
f 37 48 47 36
f 37 48 49 38
f 38 49 48 37
f 38 49 50 39
f 39 50 49 38
f 39 50 51 40
f 40 51 50 39
f 40 51 52 41
f 41 52 51 40
f 41 52 53 42
f 42 53 52 41
f 42 53 54 43
f 43 54 53 42
f 43 54 55 44
f 44 55 54 43
f 45 56 57 46
f 46 57 56 45
f 46 57 58 47
f 47 58 57 46
f 47 58 59 48
f 48 59 58 47
f 48 59 60 49
f 49 60 59 48
f 49 60 61 50
f 50 61 60 49
f 50 61 62 51
f 51 62 61 50
f 51 62 63 52
f 52 63 62 51
f 52 63 64 53
f 53 64 63 52
f 53 64 65 54
f 54 65 64 53
f 54 65 66 55
f 55 66 65 54
f 56 67 68 57
f 57 68 67 56
f 57 68 69 58
f 58 69 68 57
f 58 69 70 59
f 59 70 69 58
f 59 70 71 60
f 60 71 70 59
f 60 71 72 61
f 61 72 71 60
f 61 72 73 62
f 62 73 72 61
f 62 73 74 63
f 63 74 73 62
f 63 74 75 64
f 64 75 74 63
f 64 75 76 65
f 65 76 75 64
f 65 76 77 66
f 66 77 76 65
f 1 2 6 6
f 6 6 2 1
f 2 3 6 6
f 6 6 3 2
f 9 10 6 6
f 6 6 10 9
f 10 11 6 6
f 6 6 11 10
f 67 68 72 72
f 72 72 68 67
f 68 69 72 72
f 72 72 69 68
f 75 76 72 72
f 72 72 76 75
f 76 77 72 72
f 72 72 77 76
