# Project-authored open ShuttleA cabin rib frame.
o cabin_rib_frame
v -2.2600 -1.0200 -0.0800
v -2.1800 -0.1800 -0.0800
v -1.9500 0.7200 -0.0800
v -1.3400 1.1800 -0.0800
v 0.0000 1.3400 -0.0800
v 1.3400 1.1800 -0.0800
v 1.9500 0.7200 -0.0800
v 2.1800 -0.1800 -0.0800
v 2.2600 -1.0200 -0.0800
v -1.9200 -0.8600 -0.0800
v -1.8400 -0.1400 -0.0800
v -1.5800 0.5200 -0.0800
v -1.0800 0.8800 -0.0800
v 0.0000 1.0200 -0.0800
v 1.0800 0.8800 -0.0800
v 1.5800 0.5200 -0.0800
v 1.8400 -0.1400 -0.0800
v 1.9200 -0.8600 -0.0800
v -2.2600 -1.0200 0.0800
v -2.1800 -0.1800 0.0800
v -1.9500 0.7200 0.0800
v -1.3400 1.1800 0.0800
v 0.0000 1.3400 0.0800
v 1.3400 1.1800 0.0800
v 1.9500 0.7200 0.0800
v 2.1800 -0.1800 0.0800
v 2.2600 -1.0200 0.0800
v -1.9200 -0.8600 0.0800
v -1.8400 -0.1400 0.0800
v -1.5800 0.5200 0.0800
v -1.0800 0.8800 0.0800
v 0.0000 1.0200 0.0800
v 1.0800 0.8800 0.0800
v 1.5800 0.5200 0.0800
v 1.8400 -0.1400 0.0800
v 1.9200 -0.8600 0.0800
f 1 2 11 10
f 10 11 2 1
f 20 19 28 29
f 29 28 19 20
f 2 20 29 11
f 11 29 20 2
f 19 1 10 28
f 28 10 1 19
f 2 3 12 11
f 11 12 3 2
f 21 20 29 30
f 30 29 20 21
f 3 21 30 12
f 12 30 21 3
f 20 2 11 29
f 29 11 2 20
f 3 4 13 12
f 12 13 4 3
f 22 21 30 31
f 31 30 21 22
f 4 22 31 13
f 13 31 22 4
f 21 3 12 30
f 30 12 3 21
f 4 5 14 13
f 13 14 5 4
f 23 22 31 32
f 32 31 22 23
f 5 23 32 14
f 14 32 23 5
f 22 4 13 31
f 31 13 4 22
f 5 6 15 14
f 14 15 6 5
f 24 23 32 33
f 33 32 23 24
f 6 24 33 15
f 15 33 24 6
f 23 5 14 32
f 32 14 5 23
f 6 7 16 15
f 15 16 7 6
f 25 24 33 34
f 34 33 24 25
f 7 25 34 16
f 16 34 25 7
f 24 6 15 33
f 33 15 6 24
f 7 8 17 16
f 16 17 8 7
f 26 25 34 35
f 35 34 25 26
f 8 26 35 17
f 17 35 26 8
f 25 7 16 34
f 34 16 7 25
f 8 9 18 17
f 17 18 9 8
f 27 26 35 36
f 36 35 26 27
f 9 27 36 18
f 18 36 27 9
f 26 8 17 35
f 35 17 8 26
f 1 19 28 10
f 10 28 19 1
f 9 18 36 27
f 27 36 18 9
