# Project-authored MVP ship interior floor.
# Local axes: X width, Y thickness, Z length.
o cabin_floor_tapered
v -1.65 -0.09 -3.45
v 1.65 -0.09 -3.45
v 2.35 -0.09 -0.35
v 2.18 -0.09 3.48
v -2.18 -0.09 3.48
v -2.35 -0.09 -0.35
v -1.65 0.09 -3.45
v 1.65 0.09 -3.45
v 2.35 0.09 -0.35
v 2.18 0.09 3.48
v -2.18 0.09 3.48
v -2.35 0.09 -0.35
vn 0 -1 0
vn 0 1 0
vn 0 0 -1
vn 1 0 0
vn 0 0 1
vn -1 0 0
f 1//1 2//1 3//1 4//1 5//1 6//1
f 7//2 12//2 11//2 10//2 9//2 8//2
f 1//3 7//3 8//3 2//3
f 2//4 8//4 9//4 3//4
f 3//4 9//4 10//4 4//4
f 4//5 10//5 11//5 5//5
f 5//6 11//6 12//6 6//6
f 6//6 12//6 7//6 1//6
