# Project-authored segmented cockpit canopy glass.
o cockpit_canopy_glass
v -0.3600 1.9800 -11.3400
v -0.3312 2.0548 -11.3400
v -0.2088 2.1384 -11.3400
v 0.0000 2.2000 -11.3400
v 0.2088 2.1384 -11.3400
v 0.3312 2.0548 -11.3400
v 0.3600 1.9800 -11.3400
v -0.6600 1.8800 -10.6200
v -0.6072 2.1656 -10.6200
v -0.3828 2.4848 -10.6200
v 0.0000 2.7200 -10.6200
v 0.3828 2.4848 -10.6200
v 0.6072 2.1656 -10.6200
v 0.6600 1.8800 -10.6200
v -0.8800 1.8200 -9.6200
v -0.8096 2.2824 -9.6200
v -0.5104 2.7992 -9.6200
v 0.0000 3.1800 -9.6200
v 0.5104 2.7992 -9.6200
v 0.8096 2.2824 -9.6200
v 0.8800 1.8200 -9.6200
v -0.9400 1.8800 -8.4400
v -0.8648 2.4240 -8.4400
v -0.5452 3.0320 -8.4400
v 0.0000 3.4800 -8.4400
v 0.5452 3.0320 -8.4400
v 0.8648 2.4240 -8.4400
v 0.9400 1.8800 -8.4400
v -0.8800 2.0500 -7.1800
v -0.8096 2.5566 -7.1800
v -0.5104 3.1228 -7.1800
v 0.0000 3.5400 -7.1800
v 0.5104 3.1228 -7.1800
v 0.8096 2.5566 -7.1800
v 0.8800 2.0500 -7.1800
v -0.5400 2.3200 -6.0800
v -0.4968 2.6532 -6.0800
v -0.3132 3.0256 -6.0800
v 0.0000 3.3000 -6.0800
v 0.3132 3.0256 -6.0800
v 0.4968 2.6532 -6.0800
v 0.5400 2.3200 -6.0800
f 1 8 9 2
f 2 9 8 1
f 2 9 10 3
f 3 10 9 2
f 3 10 11 4
f 4 11 10 3
f 4 11 12 5
f 5 12 11 4
f 5 12 13 6
f 6 13 12 5
f 6 13 14 7
f 7 14 13 6
f 8 15 16 9
f 9 16 15 8
f 9 16 17 10
f 10 17 16 9
f 10 17 18 11
f 11 18 17 10
f 11 18 19 12
f 12 19 18 11
f 12 19 20 13
f 13 20 19 12
f 13 20 21 14
f 14 21 20 13
f 15 22 23 16
f 16 23 22 15
f 16 23 24 17
f 17 24 23 16
f 17 24 25 18
f 18 25 24 17
f 18 25 26 19
f 19 26 25 18
f 19 26 27 20
f 20 27 26 19
f 20 27 28 21
f 21 28 27 20
f 22 29 30 23
f 23 30 29 22
f 23 30 31 24
f 24 31 30 23
f 24 31 32 25
f 25 32 31 24
f 25 32 33 26
f 26 33 32 25
f 26 33 34 27
f 27 34 33 26
f 27 34 35 28
f 28 35 34 27
f 29 36 37 30
f 30 37 36 29
f 30 37 38 31
f 31 38 37 30
f 31 38 39 32
f 32 39 38 31
f 32 39 40 33
f 33 40 39 32
f 33 40 41 34
f 34 41 40 33
f 34 41 42 35
f 35 42 41 34
