# Project-authored cockpit viewport bezel.
o cockpit_viewport_bezel
v -0.8700 1.6500 -9.5500
v 0.8700 1.6500 -9.5500
v 0.8700 1.7500 -9.5500
v -0.8700 1.7500 -9.5500
v -0.8700 1.6500 -9.2100
v 0.8700 1.6500 -9.2100
v 0.8700 1.7500 -9.2100
v -0.8700 1.7500 -9.2100
v -0.9600 1.9100 -10.0800
v -0.8800 1.9100 -10.0800
v -0.8800 1.9900 -10.0800
v -0.9600 1.9900 -10.0800
v -0.9600 1.9100 -7.3600
v -0.8800 1.9100 -7.3600
v -0.8800 1.9900 -7.3600
v -0.9600 1.9900 -7.3600
v 0.8800 1.9100 -10.0800
v 0.9600 1.9100 -10.0800
v 0.9600 1.9900 -10.0800
v 0.8800 1.9900 -10.0800
v 0.8800 1.9100 -7.3600
v 0.9600 1.9100 -7.3600
v 0.9600 1.9900 -7.3600
v 0.8800 1.9900 -7.3600
v -0.7900 1.5200 -7.5000
v 0.7900 1.5200 -7.5000
v 0.7900 1.6000 -7.5000
v -0.7900 1.6000 -7.5000
v -0.7900 1.5200 -7.2600
v 0.7900 1.5200 -7.2600
v 0.7900 1.6000 -7.2600
v -0.7900 1.6000 -7.2600
f 1 2 3 4
f 5 8 7 6
f 1 5 6 2
f 2 6 7 3
f 3 7 8 4
f 4 8 5 1
f 9 10 11 12
f 13 16 15 14
f 9 13 14 10
f 10 14 15 11
f 11 15 16 12
f 12 16 13 9
f 17 18 19 20
f 21 24 23 22
f 17 21 22 18
f 18 22 23 19
f 19 23 24 20
f 20 24 21 17
f 25 26 27 28
f 29 32 31 30
f 25 29 30 26
f 26 30 31 27
f 27 31 32 28
f 28 32 29 25
