# Project-authored MVP forward cockpit bulkhead frame.
# Local axes: X width, Y height, Z thickness. The center is open so the
# pilot seat and console visually connect to the canopy instead of a wall.
o forward_bulkhead_tapered

# left upright
v -1.95 -0.92 -0.10
v -1.25 -0.92 -0.10
v -1.25 0.95 -0.10
v -1.95 0.95 -0.10
v -1.95 -0.92 0.10
v -1.25 -0.92 0.10
v -1.25 0.95 0.10
v -1.95 0.95 0.10

# right upright
v 1.25 -0.92 -0.10
v 1.95 -0.92 -0.10
v 1.95 0.95 -0.10
v 1.25 0.95 -0.10
v 1.25 -0.92 0.10
v 1.95 -0.92 0.10
v 1.95 0.95 0.10
v 1.25 0.95 0.10

# upper brow
v -1.25 0.72 -0.10
v 1.25 0.72 -0.10
v 1.25 1.08 -0.10
v -1.25 1.08 -0.10
v -1.25 0.72 0.10
v 1.25 0.72 0.10
v 1.25 1.08 0.10
v -1.25 1.08 0.10

# lower sill
v -1.15 -0.92 -0.10
v 1.15 -0.92 -0.10
v 1.15 -0.62 -0.10
v -1.15 -0.62 -0.10
v -1.15 -0.92 0.10
v 1.15 -0.92 0.10
v 1.15 -0.62 0.10
v -1.15 -0.62 0.10

f 1 2 3 4
f 5 8 7 6
f 1 5 6 2
f 2 6 7 3
f 3 7 8 4
f 4 8 5 1

f 9 10 11 12
f 13 16 15 14
f 9 13 14 10
f 10 14 15 11
f 11 15 16 12
f 12 16 13 9

f 17 18 19 20
f 21 24 23 22
f 17 21 22 18
f 18 22 23 19
f 19 23 24 20
f 20 24 21 17

f 25 26 27 28
f 29 32 31 30
f 25 29 30 26
f 26 30 31 27
f 27 31 32 28
f 28 32 29 25
