# Project-authored MVP pilot chair cushions.
o pilot_chair_cushions
v -0.48 0.10 -0.36
v 0.48 0.10 -0.36
v 0.46 0.14 0.34
v -0.46 0.14 0.34
v -0.42 0.32 -0.26
v 0.42 0.32 -0.26
v 0.40 0.34 0.24
v -0.40 0.34 0.24
v -0.42 0.35 0.43
v 0.42 0.35 0.43
v 0.38 1.10 0.58
v -0.38 1.10 0.58
v -0.34 1.26 0.64
v 0.34 1.26 0.64
v -0.30 1.28 0.62
v 0.30 1.28 0.62
v 0.28 1.52 0.66
v -0.28 1.52 0.66
vn 0 -1 0
vn 0 1 0
vn 0 0 -1
vn 1 0 0
vn 0 0 1
vn -1 0 0
f 1//1 2//1 3//1 4//1
f 5//2 8//2 7//2 6//2
f 1//3 5//3 6//3 2//3
f 2//4 6//4 7//4 3//4
f 3//5 7//5 8//5 4//5
f 4//6 8//6 5//6 1//6
f 9//5 10//5 11//5 14//5 13//5 12//5
f 9//6 12//6 8//6
f 10//4 7//4 11//4
f 12//2 13//2 14//2 11//2
f 15//5 16//5 17//5 18//5
