o mineral_shard
v 0.411628 0.000000 0.083441
v 0.133552 0.000000 0.398201
v -0.278076 0.000000 0.314760
v -0.411628 0.000000 -0.083441
v -0.133552 0.000000 -0.398201
v 0.278076 0.000000 -0.314760
v 0.274419 1.900000 0.055627
v 0.089035 1.900000 0.265467
v -0.185384 1.900000 0.209840
v -0.274419 1.900000 -0.055627
v -0.089035 1.900000 -0.265467
v 0.185384 1.900000 -0.209840
v 0.080000 2.650000 -0.040000
f 1 2 8 7
f 2 3 9 8
f 3 4 10 9
f 4 5 11 10
f 5 6 12 11
f 6 1 7 12
f 7 8 13
f 8 9 13
f 9 10 13
f 10 11 13
f 11 12 13
f 12 7 13
f 6 5 4 3 2 1
