o rock_lowpoly_a
v 0.432139 -0.473937 0.000000
v 0.392428 -0.484366 0.246965
v 0.084062 -0.445363 0.357552
v -0.183505 -0.426511 0.238380
v -0.340156 -0.436325 0.092855
v -0.347606 -0.481935 -0.094889
v -0.228404 -0.384029 -0.296705
v 0.066530 -0.464309 -0.282983
v 0.388018 -0.367955 -0.244189
v 1.058979 -0.013741 0.000000
v 0.971753 -0.060305 0.611548
v 0.209541 -0.027982 0.891273
v -0.415867 -0.050834 0.540227
v -0.862594 0.042045 0.235469
v -0.799567 0.010853 -0.218264
v -0.545715 -0.016971 -0.708904
v 0.181213 -0.058149 -0.770784
v 0.603100 -0.039107 -0.379545
v 0.712454 0.389370 0.000000
v 0.451502 0.410380 0.284141
v 0.110459 0.372369 0.469835
v -0.375376 0.425466 0.487627
v -0.531731 0.408898 0.145151
v -0.620485 0.448893 -0.169378
v -0.364467 0.370796 -0.473456
v 0.141207 0.348203 -0.600619
v 0.478264 0.433200 -0.300983
v -0.097444 0.779000 -0.002318
v -0.129022 -0.684000 0.035325
f 1 2 11 10
f 2 3 12 11
f 3 4 13 12
f 4 5 14 13
f 5 6 15 14
f 6 7 16 15
f 7 8 17 16
f 8 9 18 17
f 9 1 10 18
f 10 11 20 19
f 11 12 21 20
f 12 13 22 21
f 13 14 23 22
f 14 15 24 23
f 15 16 25 24
f 16 17 26 25
f 17 18 27 26
f 18 10 19 27
f 19 20 28
f 20 21 28
f 21 22 28
f 22 23 28
f 23 24 28
f 24 25 28
f 25 26 28
f 26 27 28
f 27 19 28
f 1 29 2
f 2 29 3
f 3 29 4
f 4 29 5
f 5 29 6
f 6 29 7
f 7 29 8
f 8 29 9
f 9 29 1
