o rock_lowpoly_b
v 0.301545 -0.663328 0.000000
v 0.254143 -0.775056 0.213251
v 0.039680 -0.724678 0.225039
v -0.134981 -0.630154 0.233794
v -0.315331 -0.675484 0.114771
v -0.295735 -0.662493 -0.107639
v -0.124843 -0.710508 -0.216234
v 0.043821 -0.609404 -0.248523
v 0.180836 -0.628316 -0.151740
v 0.511181 0.040567 0.000000
v 0.459425 -0.020699 0.385504
v 0.133763 -0.104463 0.758608
v -0.253257 0.090062 0.438655
v -0.618095 -0.088758 0.224968
v -0.769756 0.096937 -0.280168
v -0.261989 -0.016664 -0.453778
v 0.092309 -0.040679 -0.523510
v 0.532968 -0.073015 -0.447213
v 0.461556 0.553644 0.000000
v 0.266601 0.719506 0.223704
v 0.069034 0.633388 0.391512
v -0.219885 0.645959 0.380852
v -0.370342 0.549117 0.134793
v -0.439707 0.752439 -0.160040
v -0.260961 0.686500 -0.451997
v 0.067377 0.621299 -0.382116
v 0.352461 0.688709 -0.295750
v -0.069510 1.271000 -0.047705
v -0.024602 -1.116000 0.002043
f 1 2 11 10
f 2 3 12 11
f 3 4 13 12
f 4 5 14 13
f 5 6 15 14
f 6 7 16 15
f 7 8 17 16
f 8 9 18 17
f 9 1 10 18
f 10 11 20 19
f 11 12 21 20
f 12 13 22 21
f 13 14 23 22
f 14 15 24 23
f 15 16 25 24
f 16 17 26 25
f 17 18 27 26
f 18 10 19 27
f 19 20 28
f 20 21 28
f 21 22 28
f 22 23 28
f 23 24 28
f 24 25 28
f 25 26 28
f 26 27 28
f 27 19 28
f 1 29 2
f 2 29 3
f 3 29 4
f 4 29 5
f 5 29 6
f 6 29 7
f 7 29 8
f 8 29 9
f 9 29 1
