o launch_beacon
v 0.420000 0.000000 0.000000
v 0.296985 0.000000 0.296985
v 0.000000 0.000000 0.420000
v -0.296985 0.000000 0.296985
v -0.420000 0.000000 0.000000
v -0.296985 0.000000 -0.296985
v -0.000000 0.000000 -0.420000
v 0.296985 0.000000 -0.296985
v 0.240000 5.400000 0.000000
v 0.169706 5.400000 0.169706
v 0.000000 5.400000 0.240000
v -0.169706 5.400000 0.169706
v -0.240000 5.400000 0.000000
v -0.169706 5.400000 -0.169706
v -0.000000 5.400000 -0.240000
v 0.169706 5.400000 -0.169706
v 0.000000 6.800000 0.000000
v 0.280000 1.000000 0.000000
v 2.100000 1.700000 0.080000
v 2.100000 1.700000 -0.080000
v -0.140000 1.000000 0.242487
v -1.119282 1.700000 1.778653
v -0.980718 1.700000 1.858653
v -0.140000 1.000000 -0.242487
v -0.980718 1.700000 -1.858653
v -1.119282 1.700000 -1.778653
f 1 2 10 9
f 2 3 11 10
f 3 4 12 11
f 4 5 13 12
f 5 6 14 13
f 6 7 15 14
f 7 8 16 15
f 8 1 9 16
f 9 10 17
f 10 11 17
f 11 12 17
f 12 13 17
f 13 14 17
f 14 15 17
f 15 16 17
f 16 9 17
f 8 7 6 5 4 3 2 1
f 18 19 20
f 21 22 23
f 24 25 26
