# MX01 dynamic exterior collision
o COL_MX01_dynamic_aft_body
usemtl MX01_DynamicCollision
v -18.737121 -8.092395 -53.585189
v 18.737121 -8.092395 -53.585189
v 18.737121 10.141231 -53.585189
v -18.737121 10.141231 -53.585189
v -18.737121 -8.092395 -29.779229
v 18.737121 -8.092395 -29.779229
v 18.737121 10.141231 -29.779229
v -18.737121 10.141231 -29.779229
f 1 2 3 4
f 5 8 7 6
f 1 5 6 2
f 2 6 7 3
f 3 7 8 4
f 4 8 5 1
o COL_MX01_dynamic_central_body
usemtl MX01_DynamicCollision
v -6.274358 -2.106598 -30.004894
v 6.274358 -2.106598 -30.004894
v 6.274358 10.193610 -30.004894
v -6.274358 10.193610 -30.004894
v -6.274358 -2.106598 21.472445
v 6.274358 -2.106598 21.472445
v 6.274358 10.193610 21.472445
v -6.274358 10.193610 21.472445
f 9 10 11 12
f 13 16 15 14
f 9 13 14 10
f 10 14 15 11
f 11 15 16 12
f 12 16 13 9
o COL_MX01_dynamic_forward_nose
usemtl MX01_DynamicCollision
v -6.274356 -10.193610 21.243508
v 6.274363 -10.193610 21.243508
v 6.274363 8.875419 21.243508
v -6.274356 8.875419 21.243508
v -6.274356 -10.193610 53.585188
v 6.274363 -10.193610 53.585188
v 6.274363 8.875419 53.585188
v -6.274356 8.875419 53.585188
f 17 18 19 20
f 21 24 23 22
f 17 21 22 18
f 18 22 23 19
f 19 23 24 20
f 20 24 21 17
o COL_MX01_dynamic_port_lateral
usemtl MX01_DynamicCollision
v 12.519122 -5.607484 -30.058246
v 15.991572 -5.607484 -30.058246
v 15.991572 -0.387314 -30.058246
v 12.519122 -0.387314 -30.058246
v 12.519122 -5.607484 -27.144404
v 15.991572 -5.607484 -27.144404
v 15.991572 -0.387314 -27.144404
v 12.519122 -0.387314 -27.144404
f 25 26 27 28
f 29 32 31 30
f 25 29 30 26
f 26 30 31 27
f 27 31 32 28
f 28 32 29 25
o COL_MX01_dynamic_starboard_lateral
usemtl MX01_DynamicCollision
v -15.991572 -5.607484 -30.058244
v -12.519122 -5.607484 -30.058244
v -12.519122 -0.387314 -30.058244
v -15.991572 -0.387314 -30.058244
v -15.991572 -5.607484 -27.144402
v -12.519122 -5.607484 -27.144402
v -12.519122 -0.387314 -27.144402
v -15.991572 -0.387314 -27.144402
f 33 34 35 36
f 37 40 39 38
f 33 37 38 34
f 34 38 39 35
f 35 39 40 36
f 36 40 37 33
o COL_MX01_dynamic_belly_support
usemtl MX01_DynamicCollision
v -15.912599 -5.607484 -30.058244
v 15.912600 -5.607484 -30.058244
v 15.912600 -3.868222 -30.058244
v -15.912599 -3.868222 -30.058244
v -15.912599 -5.607484 -27.144402
v 15.912600 -5.607484 -27.144402
v 15.912600 -3.868222 -27.144402
v -15.912599 -3.868222 -27.144402
f 41 42 43 44
f 45 48 47 46
f 41 45 46 42
f 42 46 47 43
f 43 47 48 44
f 44 48 45 41
o COL_MX01_dynamic_upper_superstructure
usemtl MX01_DynamicCollision
v -4.811533 3.284822 -29.998469
v 4.811535 3.284822 -29.998469
v 4.811535 10.193610 -29.998469
v -4.811533 10.193610 -29.998469
v -4.811533 3.284822 21.472445
v 4.811535 3.284822 21.472445
v 4.811535 10.193610 21.472445
v -4.811533 10.193610 21.472445
f 49 50 51 52
f 53 56 55 54
f 49 53 54 50
f 50 54 55 51
f 51 55 56 52
f 52 56 53 49
