# MX01 interior collision
o COL_MX01_lower_deck_candidate_floor_tile_001
usemtl MX01_PlayerFloor
v -14.000000 -4.370000 -38.500000
v -12.500000 -4.370000 -38.500000
v -12.500000 -4.250000 -38.500000
v -14.000000 -4.250000 -38.500000
v -14.000000 -4.370000 -29.500000
v -12.500000 -4.370000 -29.500000
v -12.500000 -4.250000 -29.500000
v -14.000000 -4.250000 -29.500000
f 1 2 3 4
f 5 8 7 6
f 1 5 6 2
f 2 6 7 3
f 3 7 8 4
f 4 8 5 1
o COL_MX01_lower_deck_candidate_floor_tile_002
usemtl MX01_PlayerFloor
v -11.500000 -4.370000 -38.500000
v 11.500000 -4.370000 -38.500000
v 11.500000 -4.250000 -38.500000
v -11.500000 -4.250000 -38.500000
v -11.500000 -4.370000 -35.000000
v 11.500000 -4.370000 -35.000000
v 11.500000 -4.250000 -35.000000
v -11.500000 -4.250000 -35.000000
f 9 10 11 12
f 13 16 15 14
f 9 13 14 10
f 10 14 15 11
f 11 15 16 12
f 12 16 13 9
o COL_MX01_lower_deck_candidate_floor_tile_003
usemtl MX01_PlayerFloor
v 12.500000 -4.370000 -38.500000
v 14.000000 -4.370000 -38.500000
v 14.000000 -4.250000 -38.500000
v 12.500000 -4.250000 -38.500000
v 12.500000 -4.370000 -29.500000
v 14.000000 -4.370000 -29.500000
v 14.000000 -4.250000 -29.500000
v 12.500000 -4.250000 -29.500000
f 17 18 19 20
f 21 24 23 22
f 17 21 22 18
f 18 22 23 19
f 19 23 24 20
f 20 24 21 17
o COL_MX01_lower_deck_candidate_floor_tile_004
usemtl MX01_PlayerFloor
v -12.000000 -4.370000 -37.500000
v -11.500000 -4.370000 -37.500000
v -11.500000 -4.250000 -37.500000
v -12.000000 -4.250000 -37.500000
v -12.000000 -4.370000 -31.500000
v -11.500000 -4.370000 -31.500000
v -11.500000 -4.250000 -31.500000
v -12.000000 -4.250000 -31.500000
f 25 26 27 28
f 29 32 31 30
f 25 29 30 26
f 26 30 31 27
f 27 31 32 28
f 28 32 29 25
o COL_MX01_lower_deck_candidate_floor_tile_005
usemtl MX01_PlayerFloor
v 11.500000 -4.370000 -37.500000
v 12.000000 -4.370000 -37.500000
v 12.000000 -4.250000 -37.500000
v 11.500000 -4.250000 -37.500000
v 11.500000 -4.370000 -31.500000
v 12.000000 -4.370000 -31.500000
v 12.000000 -4.250000 -31.500000
v 11.500000 -4.250000 -31.500000
f 33 34 35 36
f 37 40 39 38
f 33 37 38 34
f 34 38 39 35
f 35 39 40 36
f 36 40 37 33
o COL_MX01_lower_deck_candidate_floor_tile_006
usemtl MX01_PlayerFloor
v -12.500000 -4.370000 -37.000000
v -12.000000 -4.370000 -37.000000
v -12.000000 -4.250000 -37.000000
v -12.500000 -4.250000 -37.000000
v -12.500000 -4.370000 -30.500000
v -12.000000 -4.370000 -30.500000
v -12.000000 -4.250000 -30.500000
v -12.500000 -4.250000 -30.500000
f 41 42 43 44
f 45 48 47 46
f 41 45 46 42
f 42 46 47 43
f 43 47 48 44
f 44 48 45 41
o COL_MX01_lower_deck_candidate_floor_tile_007
usemtl MX01_PlayerFloor
v 12.000000 -4.370000 -37.000000
v 12.500000 -4.370000 -37.000000
v 12.500000 -4.250000 -37.000000
v 12.000000 -4.250000 -37.000000
v 12.000000 -4.370000 -30.500000
v 12.500000 -4.370000 -30.500000
v 12.500000 -4.250000 -30.500000
v 12.000000 -4.250000 -30.500000
f 49 50 51 52
f 53 56 55 54
f 49 53 54 50
f 50 54 55 51
f 51 55 56 52
f 52 56 53 49
o COL_MX01_lower_deck_candidate_floor_tile_008
usemtl MX01_PlayerFloor
v -11.500000 -4.370000 -35.000000
v -9.500000 -4.370000 -35.000000
v -9.500000 -4.250000 -35.000000
v -11.500000 -4.250000 -35.000000
v -11.500000 -4.370000 -34.500000
v -9.500000 -4.370000 -34.500000
v -9.500000 -4.250000 -34.500000
v -11.500000 -4.250000 -34.500000
f 57 58 59 60
f 61 64 63 62
f 57 61 62 58
f 58 62 63 59
f 59 63 64 60
f 60 64 61 57
o COL_MX01_lower_deck_candidate_floor_tile_009
usemtl MX01_PlayerFloor
v -3.500000 -4.370000 -35.000000
v 3.500000 -4.370000 -35.000000
v 3.500000 -4.250000 -35.000000
v -3.500000 -4.250000 -35.000000
v -3.500000 -4.370000 -34.500000
v 3.500000 -4.370000 -34.500000
v 3.500000 -4.250000 -34.500000
v -3.500000 -4.250000 -34.500000
f 65 66 67 68
f 69 72 71 70
f 65 69 70 66
f 66 70 71 67
f 67 71 72 68
f 68 72 69 65
o COL_MX01_lower_deck_candidate_floor_tile_010
usemtl MX01_PlayerFloor
v 9.500000 -4.370000 -35.000000
v 11.500000 -4.370000 -35.000000
v 11.500000 -4.250000 -35.000000
v 9.500000 -4.250000 -35.000000
v 9.500000 -4.370000 -34.500000
v 11.500000 -4.370000 -34.500000
v 11.500000 -4.250000 -34.500000
v 9.500000 -4.250000 -34.500000
f 73 74 75 76
f 77 80 79 78
f 73 77 78 74
f 74 78 79 75
f 75 79 80 76
f 76 80 77 73
o COL_MX01_lower_deck_candidate_floor_tile_011
usemtl MX01_PlayerFloor
v -11.500000 -4.370000 -34.500000
v -10.500000 -4.370000 -34.500000
v -10.500000 -4.250000 -34.500000
v -11.500000 -4.250000 -34.500000
v -11.500000 -4.370000 -33.500000
v -10.500000 -4.370000 -33.500000
v -10.500000 -4.250000 -33.500000
v -11.500000 -4.250000 -33.500000
f 81 82 83 84
f 85 88 87 86
f 81 85 86 82
f 82 86 87 83
f 83 87 88 84
f 84 88 85 81
o COL_MX01_lower_deck_candidate_floor_tile_012
usemtl MX01_PlayerFloor
v -1.500000 -4.370000 -34.500000
v 1.500000 -4.370000 -34.500000
v 1.500000 -4.250000 -34.500000
v -1.500000 -4.250000 -34.500000
v -1.500000 -4.370000 -34.000000
v 1.500000 -4.370000 -34.000000
v 1.500000 -4.250000 -34.000000
v -1.500000 -4.250000 -34.000000
f 89 90 91 92
f 93 96 95 94
f 89 93 94 90
f 90 94 95 91
f 91 95 96 92
f 92 96 93 89
o COL_MX01_lower_deck_candidate_floor_tile_013
usemtl MX01_PlayerFloor
v 10.500000 -4.370000 -34.500000
v 11.500000 -4.370000 -34.500000
v 11.500000 -4.250000 -34.500000
v 10.500000 -4.250000 -34.500000
v 10.500000 -4.370000 -33.500000
v 11.500000 -4.370000 -33.500000
v 11.500000 -4.250000 -33.500000
v 10.500000 -4.250000 -33.500000
f 97 98 99 100
f 101 104 103 102
f 97 101 102 98
f 98 102 103 99
f 99 103 104 100
f 100 104 101 97
o COL_MX01_lower_deck_candidate_floor_tile_014
usemtl MX01_PlayerFloor
v -11.500000 -4.370000 -33.500000
v -11.000000 -4.370000 -33.500000
v -11.000000 -4.250000 -33.500000
v -11.500000 -4.250000 -33.500000
v -11.500000 -4.370000 -32.500000
v -11.000000 -4.370000 -32.500000
v -11.000000 -4.250000 -32.500000
v -11.500000 -4.250000 -32.500000
f 105 106 107 108
f 109 112 111 110
f 105 109 110 106
f 106 110 111 107
f 107 111 112 108
f 108 112 109 105
o COL_MX01_lower_deck_candidate_floor_tile_015
usemtl MX01_PlayerFloor
v 11.000000 -4.370000 -33.500000
v 11.500000 -4.370000 -33.500000
v 11.500000 -4.250000 -33.500000
v 11.000000 -4.250000 -33.500000
v 11.000000 -4.370000 -32.500000
v 11.500000 -4.370000 -32.500000
v 11.500000 -4.250000 -32.500000
v 11.000000 -4.250000 -32.500000
f 113 114 115 116
f 117 120 119 118
f 113 117 118 114
f 114 118 119 115
f 115 119 120 116
f 116 120 117 113
o COL_MX01_lower_deck_candidate_floor_tile_016
usemtl MX01_PlayerFloor
v -14.000000 -4.370000 -29.500000
v -13.000000 -4.370000 -29.500000
v -13.000000 -4.250000 -29.500000
v -14.000000 -4.250000 -29.500000
v -14.000000 -4.370000 -29.000000
v -13.000000 -4.370000 -29.000000
v -13.000000 -4.250000 -29.000000
v -14.000000 -4.250000 -29.000000
f 121 122 123 124
f 125 128 127 126
f 121 125 126 122
f 122 126 127 123
f 123 127 128 124
f 124 128 125 121
o COL_MX01_lower_deck_candidate_floor_tile_017
usemtl MX01_PlayerFloor
v 13.000000 -4.370000 -29.500000
v 14.000000 -4.370000 -29.500000
v 14.000000 -4.250000 -29.500000
v 13.000000 -4.250000 -29.500000
v 13.000000 -4.370000 -29.000000
v 14.000000 -4.370000 -29.000000
v 14.000000 -4.250000 -29.000000
v 13.000000 -4.250000 -29.000000
f 129 130 131 132
f 133 136 135 134
f 129 133 134 130
f 130 134 135 131
f 131 135 136 132
f 132 136 133 129
o COL_MX01_mid_deck_candidate_floor_tile_001
usemtl MX01_PlayerFloor
v -3.000000 -0.870000 -35.000000
v 3.000000 -0.870000 -35.000000
v 3.000000 -0.750000 -35.000000
v -3.000000 -0.750000 -35.000000
v -3.000000 -0.870000 32.000000
v 3.000000 -0.870000 32.000000
v 3.000000 -0.750000 32.000000
v -3.000000 -0.750000 32.000000
f 137 138 139 140
f 141 144 143 142
f 137 141 142 138
f 138 142 143 139
f 139 143 144 140
f 140 144 141 137
o COL_MX01_mid_deck_candidate_floor_tile_002
usemtl MX01_PlayerFloor
v -3.500000 -0.870000 -34.000000
v -3.000000 -0.870000 -34.000000
v -3.000000 -0.750000 -34.000000
v -3.500000 -0.750000 -34.000000
v -3.500000 -0.870000 30.500000
v -3.000000 -0.870000 30.500000
v -3.000000 -0.750000 30.500000
v -3.500000 -0.750000 30.500000
f 145 146 147 148
f 149 152 151 150
f 145 149 150 146
f 146 150 151 147
f 147 151 152 148
f 148 152 149 145
o COL_MX01_mid_deck_candidate_floor_tile_003
usemtl MX01_PlayerFloor
v 3.000000 -0.870000 -34.000000
v 3.500000 -0.870000 -34.000000
v 3.500000 -0.750000 -34.000000
v 3.000000 -0.750000 -34.000000
v 3.000000 -0.870000 30.500000
v 3.500000 -0.870000 30.500000
v 3.500000 -0.750000 30.500000
v 3.000000 -0.750000 30.500000
f 153 154 155 156
f 157 160 159 158
f 153 157 158 154
f 154 158 159 155
f 155 159 160 156
f 156 160 157 153
o COL_MX01_mid_deck_candidate_floor_tile_004
usemtl MX01_PlayerFloor
v -4.000000 -0.870000 -30.500000
v -3.500000 -0.870000 -30.500000
v -3.500000 -0.750000 -30.500000
v -4.000000 -0.750000 -30.500000
v -4.000000 -0.870000 29.500000
v -3.500000 -0.870000 29.500000
v -3.500000 -0.750000 29.500000
v -4.000000 -0.750000 29.500000
f 161 162 163 164
f 165 168 167 166
f 161 165 166 162
f 162 166 167 163
f 163 167 168 164
f 164 168 165 161
o COL_MX01_mid_deck_candidate_floor_tile_005
usemtl MX01_PlayerFloor
v 3.500000 -0.870000 -30.500000
v 4.000000 -0.870000 -30.500000
v 4.000000 -0.750000 -30.500000
v 3.500000 -0.750000 -30.500000
v 3.500000 -0.870000 29.500000
v 4.000000 -0.870000 29.500000
v 4.000000 -0.750000 29.500000
v 3.500000 -0.750000 29.500000
f 169 170 171 172
f 173 176 175 174
f 169 173 174 170
f 170 174 175 171
f 171 175 176 172
f 172 176 173 169
o COL_MX01_mid_deck_candidate_floor_tile_006
usemtl MX01_PlayerFloor
v -4.500000 -0.870000 -28.500000
v -4.000000 -0.870000 -28.500000
v -4.000000 -0.750000 -28.500000
v -4.500000 -0.750000 -28.500000
v -4.500000 -0.870000 28.000000
v -4.000000 -0.870000 28.000000
v -4.000000 -0.750000 28.000000
v -4.500000 -0.750000 28.000000
f 177 178 179 180
f 181 184 183 182
f 177 181 182 178
f 178 182 183 179
f 179 183 184 180
f 180 184 181 177
o COL_MX01_mid_deck_candidate_floor_tile_007
usemtl MX01_PlayerFloor
v 4.000000 -0.870000 -28.500000
v 4.500000 -0.870000 -28.500000
v 4.500000 -0.750000 -28.500000
v 4.000000 -0.750000 -28.500000
v 4.000000 -0.870000 28.000000
v 4.500000 -0.870000 28.000000
v 4.500000 -0.750000 28.000000
v 4.000000 -0.750000 28.000000
f 185 186 187 188
f 189 192 191 190
f 185 189 190 186
f 186 190 191 187
f 187 191 192 188
f 188 192 189 185
o COL_MX01_mid_deck_candidate_floor_tile_008
usemtl MX01_PlayerFloor
v -5.000000 -0.870000 -27.000000
v -4.500000 -0.870000 -27.000000
v -4.500000 -0.750000 -27.000000
v -5.000000 -0.750000 -27.000000
v -5.000000 -0.870000 27.000000
v -4.500000 -0.870000 27.000000
v -4.500000 -0.750000 27.000000
v -5.000000 -0.750000 27.000000
f 193 194 195 196
f 197 200 199 198
f 193 197 198 194
f 194 198 199 195
f 195 199 200 196
f 196 200 197 193
o COL_MX01_mid_deck_candidate_floor_tile_009
usemtl MX01_PlayerFloor
v 4.500000 -0.870000 -27.000000
v 5.000000 -0.870000 -27.000000
v 5.000000 -0.750000 -27.000000
v 4.500000 -0.750000 -27.000000
v 4.500000 -0.870000 27.000000
v 5.000000 -0.870000 27.000000
v 5.000000 -0.750000 27.000000
v 4.500000 -0.750000 27.000000
f 201 202 203 204
f 205 208 207 206
f 201 205 206 202
f 202 206 207 203
f 203 207 208 204
f 204 208 205 201
o COL_MX01_mid_deck_candidate_floor_tile_010
usemtl MX01_PlayerFloor
v -5.500000 -0.870000 -26.000000
v -5.000000 -0.870000 -26.000000
v -5.000000 -0.750000 -26.000000
v -5.500000 -0.750000 -26.000000
v -5.500000 -0.870000 26.000000
v -5.000000 -0.870000 26.000000
v -5.000000 -0.750000 26.000000
v -5.500000 -0.750000 26.000000
f 209 210 211 212
f 213 216 215 214
f 209 213 214 210
f 210 214 215 211
f 211 215 216 212
f 212 216 213 209
o COL_MX01_mid_deck_candidate_floor_tile_011
usemtl MX01_PlayerFloor
v 5.000000 -0.870000 -26.000000
v 5.500000 -0.870000 -26.000000
v 5.500000 -0.750000 -26.000000
v 5.000000 -0.750000 -26.000000
v 5.000000 -0.870000 26.000000
v 5.500000 -0.870000 26.000000
v 5.500000 -0.750000 26.000000
v 5.000000 -0.750000 26.000000
f 217 218 219 220
f 221 224 223 222
f 217 221 222 218
f 218 222 223 219
f 219 223 224 220
f 220 224 221 217
o COL_MX01_mid_deck_candidate_floor_tile_012
usemtl MX01_PlayerFloor
v -6.000000 -0.870000 -24.000000
v -5.500000 -0.870000 -24.000000
v -5.500000 -0.750000 -24.000000
v -6.000000 -0.750000 -24.000000
v -6.000000 -0.870000 24.500000
v -5.500000 -0.870000 24.500000
v -5.500000 -0.750000 24.500000
v -6.000000 -0.750000 24.500000
f 225 226 227 228
f 229 232 231 230
f 225 229 230 226
f 226 230 231 227
f 227 231 232 228
f 228 232 229 225
o COL_MX01_mid_deck_candidate_floor_tile_013
usemtl MX01_PlayerFloor
v 5.500000 -0.870000 -24.000000
v 6.000000 -0.870000 -24.000000
v 6.000000 -0.750000 -24.000000
v 5.500000 -0.750000 -24.000000
v 5.500000 -0.870000 24.500000
v 6.000000 -0.870000 24.500000
v 6.000000 -0.750000 24.500000
v 5.500000 -0.750000 24.500000
f 233 234 235 236
f 237 240 239 238
f 233 237 238 234
f 234 238 239 235
f 235 239 240 236
f 236 240 237 233
o COL_MX01_mid_deck_candidate_floor_tile_014
usemtl MX01_PlayerFloor
v -2.500000 -0.870000 32.000000
v 2.500000 -0.870000 32.000000
v 2.500000 -0.750000 32.000000
v -2.500000 -0.750000 32.000000
v -2.500000 -0.870000 49.000000
v 2.500000 -0.870000 49.000000
v 2.500000 -0.750000 49.000000
v -2.500000 -0.750000 49.000000
f 241 242 243 244
f 245 248 247 246
f 241 245 246 242
f 242 246 247 243
f 243 247 248 244
f 244 248 245 241
o COL_MX01_mid_deck_candidate_floor_tile_015
usemtl MX01_PlayerFloor
v -3.000000 -0.870000 38.500000
v -2.500000 -0.870000 38.500000
v -2.500000 -0.750000 38.500000
v -3.000000 -0.750000 38.500000
v -3.000000 -0.870000 49.000000
v -2.500000 -0.870000 49.000000
v -2.500000 -0.750000 49.000000
v -3.000000 -0.750000 49.000000
f 249 250 251 252
f 253 256 255 254
f 249 253 254 250
f 250 254 255 251
f 251 255 256 252
f 252 256 253 249
o COL_MX01_mid_deck_candidate_floor_tile_016
usemtl MX01_PlayerFloor
v 2.500000 -0.870000 38.500000
v 3.000000 -0.870000 38.500000
v 3.000000 -0.750000 38.500000
v 2.500000 -0.750000 38.500000
v 2.500000 -0.870000 49.000000
v 3.000000 -0.870000 49.000000
v 3.000000 -0.750000 49.000000
v 2.500000 -0.750000 49.000000
f 257 258 259 260
f 261 264 263 262
f 257 261 262 258
f 258 262 263 259
f 259 263 264 260
f 260 264 261 257
o COL_MX01_mid_deck_candidate_floor_tile_017
usemtl MX01_PlayerFloor
v -3.500000 -0.870000 40.000000
v -3.000000 -0.870000 40.000000
v -3.000000 -0.750000 40.000000
v -3.500000 -0.750000 40.000000
v -3.500000 -0.870000 49.000000
v -3.000000 -0.870000 49.000000
v -3.000000 -0.750000 49.000000
v -3.500000 -0.750000 49.000000
f 265 266 267 268
f 269 272 271 270
f 265 269 270 266
f 266 270 271 267
f 267 271 272 268
f 268 272 269 265
o COL_MX01_mid_deck_candidate_floor_tile_018
usemtl MX01_PlayerFloor
v 3.000000 -0.870000 40.000000
v 3.500000 -0.870000 40.000000
v 3.500000 -0.750000 40.000000
v 3.000000 -0.750000 40.000000
v 3.000000 -0.870000 49.000000
v 3.500000 -0.870000 49.000000
v 3.500000 -0.750000 49.000000
v 3.000000 -0.750000 49.000000
f 273 274 275 276
f 277 280 279 278
f 273 277 278 274
f 274 278 279 275
f 275 279 280 276
f 276 280 277 273
o COL_MX01_mid_deck_candidate_floor_tile_019
usemtl MX01_PlayerFloor
v -4.000000 -0.870000 41.000000
v -3.500000 -0.870000 41.000000
v -3.500000 -0.750000 41.000000
v -4.000000 -0.750000 41.000000
v -4.000000 -0.870000 49.000000
v -3.500000 -0.870000 49.000000
v -3.500000 -0.750000 49.000000
v -4.000000 -0.750000 49.000000
f 281 282 283 284
f 285 288 287 286
f 281 285 286 282
f 282 286 287 283
f 283 287 288 284
f 284 288 285 281
o COL_MX01_mid_deck_candidate_floor_tile_020
usemtl MX01_PlayerFloor
v 3.500000 -0.870000 41.000000
v 4.000000 -0.870000 41.000000
v 4.000000 -0.750000 41.000000
v 3.500000 -0.750000 41.000000
v 3.500000 -0.870000 49.000000
v 4.000000 -0.870000 49.000000
v 4.000000 -0.750000 49.000000
v 3.500000 -0.750000 49.000000
f 289 290 291 292
f 293 296 295 294
f 289 293 294 290
f 290 294 295 291
f 291 295 296 292
f 292 296 293 289
o COL_MX01_mid_deck_candidate_floor_tile_021
usemtl MX01_PlayerFloor
v -4.500000 -0.870000 42.000000
v -4.000000 -0.870000 42.000000
v -4.000000 -0.750000 42.000000
v -4.500000 -0.750000 42.000000
v -4.500000 -0.870000 49.000000
v -4.000000 -0.870000 49.000000
v -4.000000 -0.750000 49.000000
v -4.500000 -0.750000 49.000000
f 297 298 299 300
f 301 304 303 302
f 297 301 302 298
f 298 302 303 299
f 299 303 304 300
f 300 304 301 297
o COL_MX01_mid_deck_candidate_floor_tile_022
usemtl MX01_PlayerFloor
v 4.000000 -0.870000 42.000000
v 4.500000 -0.870000 42.000000
v 4.500000 -0.750000 42.000000
v 4.000000 -0.750000 42.000000
v 4.000000 -0.870000 49.000000
v 4.500000 -0.870000 49.000000
v 4.500000 -0.750000 49.000000
v 4.000000 -0.750000 49.000000
f 305 306 307 308
f 309 312 311 310
f 305 309 310 306
f 306 310 311 307
f 307 311 312 308
f 308 312 309 305
o COL_MX01_mid_deck_candidate_floor_tile_023
usemtl MX01_PlayerFloor
v -5.000000 -0.870000 42.500000
v -4.500000 -0.870000 42.500000
v -4.500000 -0.750000 42.500000
v -5.000000 -0.750000 42.500000
v -5.000000 -0.870000 47.500000
v -4.500000 -0.870000 47.500000
v -4.500000 -0.750000 47.500000
v -5.000000 -0.750000 47.500000
f 313 314 315 316
f 317 320 319 318
f 313 317 318 314
f 314 318 319 315
f 315 319 320 316
f 316 320 317 313
o COL_MX01_mid_deck_candidate_floor_tile_024
usemtl MX01_PlayerFloor
v 4.500000 -0.870000 42.500000
v 5.000000 -0.870000 42.500000
v 5.000000 -0.750000 42.500000
v 4.500000 -0.750000 42.500000
v 4.500000 -0.870000 47.500000
v 5.000000 -0.870000 47.500000
v 5.000000 -0.750000 47.500000
v 4.500000 -0.750000 47.500000
f 321 322 323 324
f 325 328 327 326
f 321 325 326 322
f 322 326 327 323
f 323 327 328 324
f 324 328 325 321
o COL_MX01_upper_deck_candidate_floor_tile_001
usemtl MX01_PlayerFloor
v -1.500000 2.630000 -38.500000
v 1.000000 2.630000 -38.500000
v 1.000000 2.750000 -38.500000
v -1.500000 2.750000 -38.500000
v -1.500000 2.630000 43.500000
v 1.000000 2.630000 43.500000
v 1.000000 2.750000 43.500000
v -1.500000 2.750000 43.500000
f 329 330 331 332
f 333 336 335 334
f 329 333 334 330
f 330 334 335 331
f 331 335 336 332
f 332 336 333 329
o COL_MX01_upper_deck_candidate_floor_tile_002
usemtl MX01_PlayerFloor
v -2.000000 2.630000 -38.000000
v -1.500000 2.630000 -38.000000
v -1.500000 2.750000 -38.000000
v -2.000000 2.750000 -38.000000
v -2.000000 2.630000 43.500000
v -1.500000 2.630000 43.500000
v -1.500000 2.750000 43.500000
v -2.000000 2.750000 43.500000
f 337 338 339 340
f 341 344 343 342
f 337 341 342 338
f 338 342 343 339
f 339 343 344 340
f 340 344 341 337
o COL_MX01_upper_deck_candidate_floor_tile_003
usemtl MX01_PlayerFloor
v 1.000000 2.630000 -38.000000
v 2.000000 2.630000 -38.000000
v 2.000000 2.750000 -38.000000
v 1.000000 2.750000 -38.000000
v 1.000000 2.630000 43.500000
v 2.000000 2.630000 43.500000
v 2.000000 2.750000 43.500000
v 1.000000 2.750000 43.500000
f 345 346 347 348
f 349 352 351 350
f 345 349 350 346
f 346 350 351 347
f 347 351 352 348
f 348 352 349 345
o COL_MX01_upper_deck_candidate_floor_tile_004
usemtl MX01_PlayerFloor
v -2.500000 2.630000 -37.000000
v -2.000000 2.630000 -37.000000
v -2.000000 2.750000 -37.000000
v -2.500000 2.750000 -37.000000
v -2.500000 2.630000 43.500000
v -2.000000 2.630000 43.500000
v -2.000000 2.750000 43.500000
v -2.500000 2.750000 43.500000
f 353 354 355 356
f 357 360 359 358
f 353 357 358 354
f 354 358 359 355
f 355 359 360 356
f 356 360 357 353
o COL_MX01_upper_deck_candidate_floor_tile_005
usemtl MX01_PlayerFloor
v 2.000000 2.630000 -37.000000
v 2.500000 2.630000 -37.000000
v 2.500000 2.750000 -37.000000
v 2.000000 2.750000 -37.000000
v 2.000000 2.630000 43.500000
v 2.500000 2.630000 43.500000
v 2.500000 2.750000 43.500000
v 2.000000 2.750000 43.500000
f 361 362 363 364
f 365 368 367 366
f 361 365 366 362
f 362 366 367 363
f 363 367 368 364
f 364 368 365 361
o COL_MX01_upper_deck_candidate_floor_tile_006
usemtl MX01_PlayerFloor
v -3.000000 2.630000 -35.500000
v -2.500000 2.630000 -35.500000
v -2.500000 2.750000 -35.500000
v -3.000000 2.750000 -35.500000
v -3.000000 2.630000 28.000000
v -2.500000 2.630000 28.000000
v -2.500000 2.750000 28.000000
v -3.000000 2.750000 28.000000
f 369 370 371 372
f 373 376 375 374
f 369 373 374 370
f 370 374 375 371
f 371 375 376 372
f 372 376 373 369
o COL_MX01_upper_deck_candidate_floor_tile_007
usemtl MX01_PlayerFloor
v 2.500000 2.630000 -35.500000
v 3.000000 2.630000 -35.500000
v 3.000000 2.750000 -35.500000
v 2.500000 2.750000 -35.500000
v 2.500000 2.630000 28.000000
v 3.000000 2.630000 28.000000
v 3.000000 2.750000 28.000000
v 2.500000 2.750000 28.000000
f 377 378 379 380
f 381 384 383 382
f 377 381 382 378
f 378 382 383 379
f 379 383 384 380
f 380 384 381 377
o COL_MX01_upper_deck_candidate_floor_tile_008
usemtl MX01_PlayerFloor
v -3.500000 2.630000 -32.500000
v -3.000000 2.630000 -32.500000
v -3.000000 2.750000 -32.500000
v -3.500000 2.750000 -32.500000
v -3.500000 2.630000 22.000000
v -3.000000 2.630000 22.000000
v -3.000000 2.750000 22.000000
v -3.500000 2.750000 22.000000
f 385 386 387 388
f 389 392 391 390
f 385 389 390 386
f 386 390 391 387
f 387 391 392 388
f 388 392 389 385
o COL_MX01_upper_deck_candidate_floor_tile_009
usemtl MX01_PlayerFloor
v 3.000000 2.630000 -32.500000
v 3.500000 2.630000 -32.500000
v 3.500000 2.750000 -32.500000
v 3.000000 2.750000 -32.500000
v 3.000000 2.630000 22.000000
v 3.500000 2.630000 22.000000
v 3.500000 2.750000 22.000000
v 3.000000 2.750000 22.000000
f 393 394 395 396
f 397 400 399 398
f 393 397 398 394
f 394 398 399 395
f 395 399 400 396
f 396 400 397 393
o COL_MX01_upper_deck_candidate_floor_tile_010
usemtl MX01_PlayerFloor
v -4.000000 2.630000 -20.000000
v -3.500000 2.630000 -20.000000
v -3.500000 2.750000 -20.000000
v -4.000000 2.750000 -20.000000
v -4.000000 2.630000 20.000000
v -3.500000 2.630000 20.000000
v -3.500000 2.750000 20.000000
v -4.000000 2.750000 20.000000
f 401 402 403 404
f 405 408 407 406
f 401 405 406 402
f 402 406 407 403
f 403 407 408 404
f 404 408 405 401
o COL_MX01_upper_deck_candidate_floor_tile_011
usemtl MX01_PlayerFloor
v 3.500000 2.630000 -20.000000
v 4.000000 2.630000 -20.000000
v 4.000000 2.750000 -20.000000
v 3.500000 2.750000 -20.000000
v 3.500000 2.630000 20.000000
v 4.000000 2.630000 20.000000
v 4.000000 2.750000 20.000000
v 3.500000 2.750000 20.000000
f 409 410 411 412
f 413 416 415 414
f 409 413 414 410
f 410 414 415 411
f 411 415 416 412
f 412 416 413 409
o COL_MX01_upper_deck_candidate_floor_tile_012
usemtl MX01_PlayerFloor
v -4.500000 2.630000 -18.000000
v -4.000000 2.630000 -18.000000
v -4.000000 2.750000 -18.000000
v -4.500000 2.750000 -18.000000
v -4.500000 2.630000 18.500000
v -4.000000 2.630000 18.500000
v -4.000000 2.750000 18.500000
v -4.500000 2.750000 18.500000
f 417 418 419 420
f 421 424 423 422
f 417 421 422 418
f 418 422 423 419
f 419 423 424 420
f 420 424 421 417
o COL_MX01_upper_deck_candidate_floor_tile_013
usemtl MX01_PlayerFloor
v 4.000000 2.630000 -18.000000
v 4.500000 2.630000 -18.000000
v 4.500000 2.750000 -18.000000
v 4.000000 2.750000 -18.000000
v 4.000000 2.630000 18.500000
v 4.500000 2.630000 18.500000
v 4.500000 2.750000 18.500000
v 4.000000 2.750000 18.500000
f 425 426 427 428
f 429 432 431 430
f 425 429 430 426
f 426 430 431 427
f 427 431 432 428
f 428 432 429 425
o COL_MX01_upper_deck_candidate_floor_tile_014
usemtl MX01_PlayerFloor
v -5.000000 2.630000 -16.000000
v -4.500000 2.630000 -16.000000
v -4.500000 2.750000 -16.000000
v -5.000000 2.750000 -16.000000
v -5.000000 2.630000 16.500000
v -4.500000 2.630000 16.500000
v -4.500000 2.750000 16.500000
v -5.000000 2.750000 16.500000
f 433 434 435 436
f 437 440 439 438
f 433 437 438 434
f 434 438 439 435
f 435 439 440 436
f 436 440 437 433
o COL_MX01_upper_deck_candidate_floor_tile_015
usemtl MX01_PlayerFloor
v 4.500000 2.630000 -16.000000
v 5.000000 2.630000 -16.000000
v 5.000000 2.750000 -16.000000
v 4.500000 2.750000 -16.000000
v 4.500000 2.630000 16.500000
v 5.000000 2.630000 16.500000
v 5.000000 2.750000 16.500000
v 4.500000 2.750000 16.500000
f 441 442 443 444
f 445 448 447 446
f 441 445 446 442
f 442 446 447 443
f 443 447 448 444
f 444 448 445 441
o COL_MX01_upper_deck_candidate_floor_tile_016
usemtl MX01_PlayerFloor
v -3.000000 2.630000 41.000000
v -2.500000 2.630000 41.000000
v -2.500000 2.750000 41.000000
v -3.000000 2.750000 41.000000
v -3.000000 2.630000 43.500000
v -2.500000 2.630000 43.500000
v -2.500000 2.750000 43.500000
v -3.000000 2.750000 43.500000
f 449 450 451 452
f 453 456 455 454
f 449 453 454 450
f 450 454 455 451
f 451 455 456 452
f 452 456 453 449
o COL_MX01_upper_deck_candidate_floor_tile_017
usemtl MX01_PlayerFloor
v 2.500000 2.630000 41.000000
v 3.000000 2.630000 41.000000
v 3.000000 2.750000 41.000000
v 2.500000 2.750000 41.000000
v 2.500000 2.630000 43.500000
v 3.000000 2.630000 43.500000
v 3.000000 2.750000 43.500000
v 2.500000 2.750000 43.500000
f 457 458 459 460
f 461 464 463 462
f 457 461 462 458
f 458 462 463 459
f 459 463 464 460
f 460 464 461 457
o COL_MX01_upper_deck_candidate_floor_tile_018
usemtl MX01_PlayerFloor
v -3.500000 2.630000 42.500000
v -3.000000 2.630000 42.500000
v -3.000000 2.750000 42.500000
v -3.500000 2.750000 42.500000
v -3.500000 2.630000 43.500000
v -3.000000 2.630000 43.500000
v -3.000000 2.750000 43.500000
v -3.500000 2.750000 43.500000
f 465 466 467 468
f 469 472 471 470
f 465 469 470 466
f 466 470 471 467
f 467 471 472 468
f 468 472 469 465
o COL_MX01_upper_deck_candidate_floor_tile_019
usemtl MX01_PlayerFloor
v 3.000000 2.630000 42.500000
v 3.500000 2.630000 42.500000
v 3.500000 2.750000 42.500000
v 3.000000 2.750000 42.500000
v 3.000000 2.630000 43.500000
v 3.500000 2.630000 43.500000
v 3.500000 2.750000 43.500000
v 3.000000 2.750000 43.500000
f 473 474 475 476
f 477 480 479 478
f 473 477 478 474
f 474 478 479 475
f 475 479 480 476
f 476 480 477 473
o COL_MX01_upper_deck_candidate_floor_tile_020
usemtl MX01_PlayerFloor
v -4.000000 2.630000 43.000000
v -3.500000 2.630000 43.000000
v -3.500000 2.750000 43.000000
v -4.000000 2.750000 43.000000
v -4.000000 2.630000 43.500000
v -3.500000 2.630000 43.500000
v -3.500000 2.750000 43.500000
v -4.000000 2.750000 43.500000
f 481 482 483 484
f 485 488 487 486
f 481 485 486 482
f 482 486 487 483
f 483 487 488 484
f 484 488 485 481
o COL_MX01_upper_deck_candidate_floor_tile_021
usemtl MX01_PlayerFloor
v 3.500000 2.630000 43.000000
v 4.000000 2.630000 43.000000
v 4.000000 2.750000 43.000000
v 3.500000 2.750000 43.000000
v 3.500000 2.630000 43.500000
v 4.000000 2.630000 43.500000
v 4.000000 2.750000 43.500000
v 3.500000 2.750000 43.500000
f 489 490 491 492
f 493 496 495 494
f 489 493 494 490
f 490 494 495 491
f 491 495 496 492
f 492 496 493 489
o COL_MX01_entry_ramp_threshold_pad
usemtl MX01_PlayerConnector
v -1.500000 -4.350000 -39.750000
v 1.500000 -4.350000 -39.750000
v 1.500000 -4.250000 -39.750000
v -1.500000 -4.250000 -39.750000
v -1.500000 -4.350000 -36.750000
v 1.500000 -4.350000 -36.750000
v 1.500000 -4.250000 -36.750000
v -1.500000 -4.250000 -36.750000
f 497 498 499 500
f 501 504 503 502
f 497 501 502 498
f 498 502 503 499
f 499 503 504 500
f 500 504 501 497
o COL_MX01_lower_deck_candidate_to_mid_deck_candidate_lower_landing
usemtl MX01_PlayerConnector
v -1.500000 -4.350000 -33.500000
v 1.500000 -4.350000 -33.500000
v 1.500000 -4.250000 -33.500000
v -1.500000 -4.250000 -33.500000
v -1.500000 -4.350000 -30.500000
v 1.500000 -4.350000 -30.500000
v 1.500000 -4.250000 -30.500000
v -1.500000 -4.250000 -30.500000
f 505 506 507 508
f 509 512 511 510
f 505 509 510 506
f 506 510 511 507
f 507 511 512 508
f 508 512 509 505
o COL_MX01_lower_deck_candidate_to_mid_deck_candidate_upper_landing
usemtl MX01_PlayerConnector
v -1.500000 -0.850000 -33.500000
v 1.500000 -0.850000 -33.500000
v 1.500000 -0.750000 -33.500000
v -1.500000 -0.750000 -33.500000
v -1.500000 -0.850000 -30.500000
v 1.500000 -0.850000 -30.500000
v 1.500000 -0.750000 -30.500000
v -1.500000 -0.750000 -30.500000
f 513 514 515 516
f 517 520 519 518
f 513 517 518 514
f 514 518 519 515
f 515 519 520 516
f 516 520 517 513
o COL_MX01_lower_deck_candidate_to_mid_deck_candidate_stair_tread_01
usemtl MX01_PlayerStair
v -5.450000 -4.195000 -33.300000
v -4.905000 -4.195000 -33.300000
v -4.905000 -4.075000 -33.300000
v -5.450000 -4.075000 -33.300000
v -5.450000 -4.195000 -30.700000
v -4.905000 -4.195000 -30.700000
v -4.905000 -4.075000 -30.700000
v -5.450000 -4.075000 -30.700000
f 521 522 523 524
f 525 528 527 526
f 521 525 526 522
f 522 526 527 523
f 523 527 528 524
f 524 528 525 521
o COL_MX01_lower_deck_candidate_to_mid_deck_candidate_stair_tread_02
usemtl MX01_PlayerStair
v -4.905000 -4.020000 -33.300000
v -4.360000 -4.020000 -33.300000
v -4.360000 -3.900000 -33.300000
v -4.905000 -3.900000 -33.300000
v -4.905000 -4.020000 -30.700000
v -4.360000 -4.020000 -30.700000
v -4.360000 -3.900000 -30.700000
v -4.905000 -3.900000 -30.700000
f 529 530 531 532
f 533 536 535 534
f 529 533 534 530
f 530 534 535 531
f 531 535 536 532
f 532 536 533 529
o COL_MX01_lower_deck_candidate_to_mid_deck_candidate_stair_tread_03
usemtl MX01_PlayerStair
v -4.360000 -3.845000 -33.300000
v -3.815000 -3.845000 -33.300000
v -3.815000 -3.725000 -33.300000
v -4.360000 -3.725000 -33.300000
v -4.360000 -3.845000 -30.700000
v -3.815000 -3.845000 -30.700000
v -3.815000 -3.725000 -30.700000
v -4.360000 -3.725000 -30.700000
f 537 538 539 540
f 541 544 543 542
f 537 541 542 538
f 538 542 543 539
f 539 543 544 540
f 540 544 541 537
o COL_MX01_lower_deck_candidate_to_mid_deck_candidate_stair_tread_04
usemtl MX01_PlayerStair
v -3.815000 -3.670000 -33.300000
v -3.270000 -3.670000 -33.300000
v -3.270000 -3.550000 -33.300000
v -3.815000 -3.550000 -33.300000
v -3.815000 -3.670000 -30.700000
v -3.270000 -3.670000 -30.700000
v -3.270000 -3.550000 -30.700000
v -3.815000 -3.550000 -30.700000
f 545 546 547 548
f 549 552 551 550
f 545 549 550 546
f 546 550 551 547
f 547 551 552 548
f 548 552 549 545
o COL_MX01_lower_deck_candidate_to_mid_deck_candidate_stair_tread_05
usemtl MX01_PlayerStair
v -3.270000 -3.495000 -33.300000
v -2.725000 -3.495000 -33.300000
v -2.725000 -3.375000 -33.300000
v -3.270000 -3.375000 -33.300000
v -3.270000 -3.495000 -30.700000
v -2.725000 -3.495000 -30.700000
v -2.725000 -3.375000 -30.700000
v -3.270000 -3.375000 -30.700000
f 553 554 555 556
f 557 560 559 558
f 553 557 558 554
f 554 558 559 555
f 555 559 560 556
f 556 560 557 553
o COL_MX01_lower_deck_candidate_to_mid_deck_candidate_stair_tread_06
usemtl MX01_PlayerStair
v -2.725000 -3.320000 -33.300000
v -2.180000 -3.320000 -33.300000
v -2.180000 -3.200000 -33.300000
v -2.725000 -3.200000 -33.300000
v -2.725000 -3.320000 -30.700000
v -2.180000 -3.320000 -30.700000
v -2.180000 -3.200000 -30.700000
v -2.725000 -3.200000 -30.700000
f 561 562 563 564
f 565 568 567 566
f 561 565 566 562
f 562 566 567 563
f 563 567 568 564
f 564 568 565 561
o COL_MX01_lower_deck_candidate_to_mid_deck_candidate_stair_tread_07
usemtl MX01_PlayerStair
v -2.180000 -3.145000 -33.300000
v -1.635000 -3.145000 -33.300000
v -1.635000 -3.025000 -33.300000
v -2.180000 -3.025000 -33.300000
v -2.180000 -3.145000 -30.700000
v -1.635000 -3.145000 -30.700000
v -1.635000 -3.025000 -30.700000
v -2.180000 -3.025000 -30.700000
f 569 570 571 572
f 573 576 575 574
f 569 573 574 570
f 570 574 575 571
f 571 575 576 572
f 572 576 573 569
o COL_MX01_lower_deck_candidate_to_mid_deck_candidate_stair_tread_08
usemtl MX01_PlayerStair
v -1.635000 -2.970000 -33.300000
v -1.090000 -2.970000 -33.300000
v -1.090000 -2.850000 -33.300000
v -1.635000 -2.850000 -33.300000
v -1.635000 -2.970000 -30.700000
v -1.090000 -2.970000 -30.700000
v -1.090000 -2.850000 -30.700000
v -1.635000 -2.850000 -30.700000
f 577 578 579 580
f 581 584 583 582
f 577 581 582 578
f 578 582 583 579
f 579 583 584 580
f 580 584 581 577
o COL_MX01_lower_deck_candidate_to_mid_deck_candidate_stair_tread_09
usemtl MX01_PlayerStair
v -1.090000 -2.795000 -33.300000
v -0.545000 -2.795000 -33.300000
v -0.545000 -2.675000 -33.300000
v -1.090000 -2.675000 -33.300000
v -1.090000 -2.795000 -30.700000
v -0.545000 -2.795000 -30.700000
v -0.545000 -2.675000 -30.700000
v -1.090000 -2.675000 -30.700000
f 585 586 587 588
f 589 592 591 590
f 585 589 590 586
f 586 590 591 587
f 587 591 592 588
f 588 592 589 585
o COL_MX01_lower_deck_candidate_to_mid_deck_candidate_stair_tread_10
usemtl MX01_PlayerStair
v -0.545000 -2.620000 -33.300000
v 0.000000 -2.620000 -33.300000
v 0.000000 -2.500000 -33.300000
v -0.545000 -2.500000 -33.300000
v -0.545000 -2.620000 -30.700000
v 0.000000 -2.620000 -30.700000
v 0.000000 -2.500000 -30.700000
v -0.545000 -2.500000 -30.700000
f 593 594 595 596
f 597 600 599 598
f 593 597 598 594
f 594 598 599 595
f 595 599 600 596
f 596 600 597 593
o COL_MX01_lower_deck_candidate_to_mid_deck_candidate_stair_tread_11
usemtl MX01_PlayerStair
v 0.000000 -2.445000 -33.300000
v 0.545000 -2.445000 -33.300000
v 0.545000 -2.325000 -33.300000
v 0.000000 -2.325000 -33.300000
v 0.000000 -2.445000 -30.700000
v 0.545000 -2.445000 -30.700000
v 0.545000 -2.325000 -30.700000
v 0.000000 -2.325000 -30.700000
f 601 602 603 604
f 605 608 607 606
f 601 605 606 602
f 602 606 607 603
f 603 607 608 604
f 604 608 605 601
o COL_MX01_lower_deck_candidate_to_mid_deck_candidate_stair_tread_12
usemtl MX01_PlayerStair
v 0.545000 -2.270000 -33.300000
v 1.090000 -2.270000 -33.300000
v 1.090000 -2.150000 -33.300000
v 0.545000 -2.150000 -33.300000
v 0.545000 -2.270000 -30.700000
v 1.090000 -2.270000 -30.700000
v 1.090000 -2.150000 -30.700000
v 0.545000 -2.150000 -30.700000
f 609 610 611 612
f 613 616 615 614
f 609 613 614 610
f 610 614 615 611
f 611 615 616 612
f 612 616 613 609
o COL_MX01_lower_deck_candidate_to_mid_deck_candidate_stair_tread_13
usemtl MX01_PlayerStair
v 1.090000 -2.095000 -33.300000
v 1.635000 -2.095000 -33.300000
v 1.635000 -1.975000 -33.300000
v 1.090000 -1.975000 -33.300000
v 1.090000 -2.095000 -30.700000
v 1.635000 -2.095000 -30.700000
v 1.635000 -1.975000 -30.700000
v 1.090000 -1.975000 -30.700000
f 617 618 619 620
f 621 624 623 622
f 617 621 622 618
f 618 622 623 619
f 619 623 624 620
f 620 624 621 617
o COL_MX01_lower_deck_candidate_to_mid_deck_candidate_stair_tread_14
usemtl MX01_PlayerStair
v 1.635000 -1.920000 -33.300000
v 2.180000 -1.920000 -33.300000
v 2.180000 -1.800000 -33.300000
v 1.635000 -1.800000 -33.300000
v 1.635000 -1.920000 -30.700000
v 2.180000 -1.920000 -30.700000
v 2.180000 -1.800000 -30.700000
v 1.635000 -1.800000 -30.700000
f 625 626 627 628
f 629 632 631 630
f 625 629 630 626
f 626 630 631 627
f 627 631 632 628
f 628 632 629 625
o COL_MX01_lower_deck_candidate_to_mid_deck_candidate_stair_tread_15
usemtl MX01_PlayerStair
v 2.180000 -1.745000 -33.300000
v 2.725000 -1.745000 -33.300000
v 2.725000 -1.625000 -33.300000
v 2.180000 -1.625000 -33.300000
v 2.180000 -1.745000 -30.700000
v 2.725000 -1.745000 -30.700000
v 2.725000 -1.625000 -30.700000
v 2.180000 -1.625000 -30.700000
f 633 634 635 636
f 637 640 639 638
f 633 637 638 634
f 634 638 639 635
f 635 639 640 636
f 636 640 637 633
o COL_MX01_lower_deck_candidate_to_mid_deck_candidate_stair_tread_16
usemtl MX01_PlayerStair
v 2.725000 -1.570000 -33.300000
v 3.270000 -1.570000 -33.300000
v 3.270000 -1.450000 -33.300000
v 2.725000 -1.450000 -33.300000
v 2.725000 -1.570000 -30.700000
v 3.270000 -1.570000 -30.700000
v 3.270000 -1.450000 -30.700000
v 2.725000 -1.450000 -30.700000
f 641 642 643 644
f 645 648 647 646
f 641 645 646 642
f 642 646 647 643
f 643 647 648 644
f 644 648 645 641
o COL_MX01_lower_deck_candidate_to_mid_deck_candidate_stair_tread_17
usemtl MX01_PlayerStair
v 3.270000 -1.395000 -33.300000
v 3.815000 -1.395000 -33.300000
v 3.815000 -1.275000 -33.300000
v 3.270000 -1.275000 -33.300000
v 3.270000 -1.395000 -30.700000
v 3.815000 -1.395000 -30.700000
v 3.815000 -1.275000 -30.700000
v 3.270000 -1.275000 -30.700000
f 649 650 651 652
f 653 656 655 654
f 649 653 654 650
f 650 654 655 651
f 651 655 656 652
f 652 656 653 649
o COL_MX01_lower_deck_candidate_to_mid_deck_candidate_stair_tread_18
usemtl MX01_PlayerStair
v 3.815000 -1.220000 -33.300000
v 4.360000 -1.220000 -33.300000
v 4.360000 -1.100000 -33.300000
v 3.815000 -1.100000 -33.300000
v 3.815000 -1.220000 -30.700000
v 4.360000 -1.220000 -30.700000
v 4.360000 -1.100000 -30.700000
v 3.815000 -1.100000 -30.700000
f 657 658 659 660
f 661 664 663 662
f 657 661 662 658
f 658 662 663 659
f 659 663 664 660
f 660 664 661 657
o COL_MX01_lower_deck_candidate_to_mid_deck_candidate_stair_tread_19
usemtl MX01_PlayerStair
v 4.360000 -1.045000 -33.300000
v 4.905000 -1.045000 -33.300000
v 4.905000 -0.925000 -33.300000
v 4.360000 -0.925000 -33.300000
v 4.360000 -1.045000 -30.700000
v 4.905000 -1.045000 -30.700000
v 4.905000 -0.925000 -30.700000
v 4.360000 -0.925000 -30.700000
f 665 666 667 668
f 669 672 671 670
f 665 669 670 666
f 666 670 671 667
f 667 671 672 668
f 668 672 669 665
o COL_MX01_lower_deck_candidate_to_mid_deck_candidate_stair_tread_20
usemtl MX01_PlayerStair
v 4.905000 -0.870000 -33.300000
v 5.450000 -0.870000 -33.300000
v 5.450000 -0.750000 -33.300000
v 4.905000 -0.750000 -33.300000
v 4.905000 -0.870000 -30.700000
v 5.450000 -0.870000 -30.700000
v 5.450000 -0.750000 -30.700000
v 4.905000 -0.750000 -30.700000
f 673 674 675 676
f 677 680 679 678
f 673 677 678 674
f 674 678 679 675
f 675 679 680 676
f 676 680 677 673
o COL_MX01_mid_deck_candidate_to_upper_deck_candidate_lower_landing
usemtl MX01_PlayerConnector
v -1.500000 -0.850000 2.750000
v 1.500000 -0.850000 2.750000
v 1.500000 -0.750000 2.750000
v -1.500000 -0.750000 2.750000
v -1.500000 -0.850000 5.750000
v 1.500000 -0.850000 5.750000
v 1.500000 -0.750000 5.750000
v -1.500000 -0.750000 5.750000
f 681 682 683 684
f 685 688 687 686
f 681 685 686 682
f 682 686 687 683
f 683 687 688 684
f 684 688 685 681
o COL_MX01_mid_deck_candidate_to_upper_deck_candidate_upper_landing
usemtl MX01_PlayerConnector
v -1.500000 2.650000 2.750000
v 1.500000 2.650000 2.750000
v 1.500000 2.750000 2.750000
v -1.500000 2.750000 2.750000
v -1.500000 2.650000 5.750000
v 1.500000 2.650000 5.750000
v 1.500000 2.750000 5.750000
v -1.500000 2.750000 5.750000
f 689 690 691 692
f 693 696 695 694
f 689 693 694 690
f 690 694 695 691
f 691 695 696 692
f 692 696 693 689
o COL_MX01_mid_deck_candidate_to_upper_deck_candidate_stair_tread_01
usemtl MX01_PlayerStair
v -4.450000 -0.695000 2.950000
v -4.005000 -0.695000 2.950000
v -4.005000 -0.575000 2.950000
v -4.450000 -0.575000 2.950000
v -4.450000 -0.695000 5.550000
v -4.005000 -0.695000 5.550000
v -4.005000 -0.575000 5.550000
v -4.450000 -0.575000 5.550000
f 697 698 699 700
f 701 704 703 702
f 697 701 702 698
f 698 702 703 699
f 699 703 704 700
f 700 704 701 697
o COL_MX01_mid_deck_candidate_to_upper_deck_candidate_stair_tread_02
usemtl MX01_PlayerStair
v -4.005000 -0.520000 2.950000
v -3.560000 -0.520000 2.950000
v -3.560000 -0.400000 2.950000
v -4.005000 -0.400000 2.950000
v -4.005000 -0.520000 5.550000
v -3.560000 -0.520000 5.550000
v -3.560000 -0.400000 5.550000
v -4.005000 -0.400000 5.550000
f 705 706 707 708
f 709 712 711 710
f 705 709 710 706
f 706 710 711 707
f 707 711 712 708
f 708 712 709 705
o COL_MX01_mid_deck_candidate_to_upper_deck_candidate_stair_tread_03
usemtl MX01_PlayerStair
v -3.560000 -0.345000 2.950000
v -3.115000 -0.345000 2.950000
v -3.115000 -0.225000 2.950000
v -3.560000 -0.225000 2.950000
v -3.560000 -0.345000 5.550000
v -3.115000 -0.345000 5.550000
v -3.115000 -0.225000 5.550000
v -3.560000 -0.225000 5.550000
f 713 714 715 716
f 717 720 719 718
f 713 717 718 714
f 714 718 719 715
f 715 719 720 716
f 716 720 717 713
o COL_MX01_mid_deck_candidate_to_upper_deck_candidate_stair_tread_04
usemtl MX01_PlayerStair
v -3.115000 -0.170000 2.950000
v -2.670000 -0.170000 2.950000
v -2.670000 -0.050000 2.950000
v -3.115000 -0.050000 2.950000
v -3.115000 -0.170000 5.550000
v -2.670000 -0.170000 5.550000
v -2.670000 -0.050000 5.550000
v -3.115000 -0.050000 5.550000
f 721 722 723 724
f 725 728 727 726
f 721 725 726 722
f 722 726 727 723
f 723 727 728 724
f 724 728 725 721
o COL_MX01_mid_deck_candidate_to_upper_deck_candidate_stair_tread_05
usemtl MX01_PlayerStair
v -2.670000 0.005000 2.950000
v -2.225000 0.005000 2.950000
v -2.225000 0.125000 2.950000
v -2.670000 0.125000 2.950000
v -2.670000 0.005000 5.550000
v -2.225000 0.005000 5.550000
v -2.225000 0.125000 5.550000
v -2.670000 0.125000 5.550000
f 729 730 731 732
f 733 736 735 734
f 729 733 734 730
f 730 734 735 731
f 731 735 736 732
f 732 736 733 729
o COL_MX01_mid_deck_candidate_to_upper_deck_candidate_stair_tread_06
usemtl MX01_PlayerStair
v -2.225000 0.180000 2.950000
v -1.780000 0.180000 2.950000
v -1.780000 0.300000 2.950000
v -2.225000 0.300000 2.950000
v -2.225000 0.180000 5.550000
v -1.780000 0.180000 5.550000
v -1.780000 0.300000 5.550000
v -2.225000 0.300000 5.550000
f 737 738 739 740
f 741 744 743 742
f 737 741 742 738
f 738 742 743 739
f 739 743 744 740
f 740 744 741 737
o COL_MX01_mid_deck_candidate_to_upper_deck_candidate_stair_tread_07
usemtl MX01_PlayerStair
v -1.780000 0.355000 2.950000
v -1.335000 0.355000 2.950000
v -1.335000 0.475000 2.950000
v -1.780000 0.475000 2.950000
v -1.780000 0.355000 5.550000
v -1.335000 0.355000 5.550000
v -1.335000 0.475000 5.550000
v -1.780000 0.475000 5.550000
f 745 746 747 748
f 749 752 751 750
f 745 749 750 746
f 746 750 751 747
f 747 751 752 748
f 748 752 749 745
o COL_MX01_mid_deck_candidate_to_upper_deck_candidate_stair_tread_08
usemtl MX01_PlayerStair
v -1.335000 0.530000 2.950000
v -0.890000 0.530000 2.950000
v -0.890000 0.650000 2.950000
v -1.335000 0.650000 2.950000
v -1.335000 0.530000 5.550000
v -0.890000 0.530000 5.550000
v -0.890000 0.650000 5.550000
v -1.335000 0.650000 5.550000
f 753 754 755 756
f 757 760 759 758
f 753 757 758 754
f 754 758 759 755
f 755 759 760 756
f 756 760 757 753
o COL_MX01_mid_deck_candidate_to_upper_deck_candidate_stair_tread_09
usemtl MX01_PlayerStair
v -0.890000 0.705000 2.950000
v -0.445000 0.705000 2.950000
v -0.445000 0.825000 2.950000
v -0.890000 0.825000 2.950000
v -0.890000 0.705000 5.550000
v -0.445000 0.705000 5.550000
v -0.445000 0.825000 5.550000
v -0.890000 0.825000 5.550000
f 761 762 763 764
f 765 768 767 766
f 761 765 766 762
f 762 766 767 763
f 763 767 768 764
f 764 768 765 761
o COL_MX01_mid_deck_candidate_to_upper_deck_candidate_stair_tread_10
usemtl MX01_PlayerStair
v -0.445000 0.880000 2.950000
v 0.000000 0.880000 2.950000
v 0.000000 1.000000 2.950000
v -0.445000 1.000000 2.950000
v -0.445000 0.880000 5.550000
v 0.000000 0.880000 5.550000
v 0.000000 1.000000 5.550000
v -0.445000 1.000000 5.550000
f 769 770 771 772
f 773 776 775 774
f 769 773 774 770
f 770 774 775 771
f 771 775 776 772
f 772 776 773 769
o COL_MX01_mid_deck_candidate_to_upper_deck_candidate_stair_tread_11
usemtl MX01_PlayerStair
v 0.000000 1.055000 2.950000
v 0.445000 1.055000 2.950000
v 0.445000 1.175000 2.950000
v 0.000000 1.175000 2.950000
v 0.000000 1.055000 5.550000
v 0.445000 1.055000 5.550000
v 0.445000 1.175000 5.550000
v 0.000000 1.175000 5.550000
f 777 778 779 780
f 781 784 783 782
f 777 781 782 778
f 778 782 783 779
f 779 783 784 780
f 780 784 781 777
o COL_MX01_mid_deck_candidate_to_upper_deck_candidate_stair_tread_12
usemtl MX01_PlayerStair
v 0.445000 1.230000 2.950000
v 0.890000 1.230000 2.950000
v 0.890000 1.350000 2.950000
v 0.445000 1.350000 2.950000
v 0.445000 1.230000 5.550000
v 0.890000 1.230000 5.550000
v 0.890000 1.350000 5.550000
v 0.445000 1.350000 5.550000
f 785 786 787 788
f 789 792 791 790
f 785 789 790 786
f 786 790 791 787
f 787 791 792 788
f 788 792 789 785
o COL_MX01_mid_deck_candidate_to_upper_deck_candidate_stair_tread_13
usemtl MX01_PlayerStair
v 0.890000 1.405000 2.950000
v 1.335000 1.405000 2.950000
v 1.335000 1.525000 2.950000
v 0.890000 1.525000 2.950000
v 0.890000 1.405000 5.550000
v 1.335000 1.405000 5.550000
v 1.335000 1.525000 5.550000
v 0.890000 1.525000 5.550000
f 793 794 795 796
f 797 800 799 798
f 793 797 798 794
f 794 798 799 795
f 795 799 800 796
f 796 800 797 793
o COL_MX01_mid_deck_candidate_to_upper_deck_candidate_stair_tread_14
usemtl MX01_PlayerStair
v 1.335000 1.580000 2.950000
v 1.780000 1.580000 2.950000
v 1.780000 1.700000 2.950000
v 1.335000 1.700000 2.950000
v 1.335000 1.580000 5.550000
v 1.780000 1.580000 5.550000
v 1.780000 1.700000 5.550000
v 1.335000 1.700000 5.550000
f 801 802 803 804
f 805 808 807 806
f 801 805 806 802
f 802 806 807 803
f 803 807 808 804
f 804 808 805 801
o COL_MX01_mid_deck_candidate_to_upper_deck_candidate_stair_tread_15
usemtl MX01_PlayerStair
v 1.780000 1.755000 2.950000
v 2.225000 1.755000 2.950000
v 2.225000 1.875000 2.950000
v 1.780000 1.875000 2.950000
v 1.780000 1.755000 5.550000
v 2.225000 1.755000 5.550000
v 2.225000 1.875000 5.550000
v 1.780000 1.875000 5.550000
f 809 810 811 812
f 813 816 815 814
f 809 813 814 810
f 810 814 815 811
f 811 815 816 812
f 812 816 813 809
o COL_MX01_mid_deck_candidate_to_upper_deck_candidate_stair_tread_16
usemtl MX01_PlayerStair
v 2.225000 1.930000 2.950000
v 2.670000 1.930000 2.950000
v 2.670000 2.050000 2.950000
v 2.225000 2.050000 2.950000
v 2.225000 1.930000 5.550000
v 2.670000 1.930000 5.550000
v 2.670000 2.050000 5.550000
v 2.225000 2.050000 5.550000
f 817 818 819 820
f 821 824 823 822
f 817 821 822 818
f 818 822 823 819
f 819 823 824 820
f 820 824 821 817
o COL_MX01_mid_deck_candidate_to_upper_deck_candidate_stair_tread_17
usemtl MX01_PlayerStair
v 2.670000 2.105000 2.950000
v 3.115000 2.105000 2.950000
v 3.115000 2.225000 2.950000
v 2.670000 2.225000 2.950000
v 2.670000 2.105000 5.550000
v 3.115000 2.105000 5.550000
v 3.115000 2.225000 5.550000
v 2.670000 2.225000 5.550000
f 825 826 827 828
f 829 832 831 830
f 825 829 830 826
f 826 830 831 827
f 827 831 832 828
f 828 832 829 825
o COL_MX01_mid_deck_candidate_to_upper_deck_candidate_stair_tread_18
usemtl MX01_PlayerStair
v 3.115000 2.280000 2.950000
v 3.560000 2.280000 2.950000
v 3.560000 2.400000 2.950000
v 3.115000 2.400000 2.950000
v 3.115000 2.280000 5.550000
v 3.560000 2.280000 5.550000
v 3.560000 2.400000 5.550000
v 3.115000 2.400000 5.550000
f 833 834 835 836
f 837 840 839 838
f 833 837 838 834
f 834 838 839 835
f 835 839 840 836
f 836 840 837 833
o COL_MX01_mid_deck_candidate_to_upper_deck_candidate_stair_tread_19
usemtl MX01_PlayerStair
v 3.560000 2.455000 2.950000
v 4.005000 2.455000 2.950000
v 4.005000 2.575000 2.950000
v 3.560000 2.575000 2.950000
v 3.560000 2.455000 5.550000
v 4.005000 2.455000 5.550000
v 4.005000 2.575000 5.550000
v 3.560000 2.575000 5.550000
f 841 842 843 844
f 845 848 847 846
f 841 845 846 842
f 842 846 847 843
f 843 847 848 844
f 844 848 845 841
o COL_MX01_mid_deck_candidate_to_upper_deck_candidate_stair_tread_20
usemtl MX01_PlayerStair
v 4.005000 2.630000 2.950000
v 4.450000 2.630000 2.950000
v 4.450000 2.750000 2.950000
v 4.005000 2.750000 2.950000
v 4.005000 2.630000 5.550000
v 4.450000 2.630000 5.550000
v 4.450000 2.750000 5.550000
v 4.005000 2.750000 5.550000
f 849 850 851 852
f 853 856 855 854
f 849 853 854 850
f 850 854 855 851
f 851 855 856 852
f 852 856 853 849
